<svg xmlns="http://www.w3.org/2000/svg">
  <!-- Pin/ Location -->
  <symbol
    xmlns="http://www.w3.org/2000/svg"
    fill="none"
    viewBox="0 0 24 24"
    stroke-width="1.5"
    stroke="currentColor"
    class="size-6"
    id="icon-pin"
  >
    <path
      stroke-linecap="round"
      stroke-linejoin="round"
      d="M15 10.5a3 3 0 1 1-6 0 3 3 0 0 1 6 0Z"
    />
    <path
      stroke-linecap="round"
      stroke-linejoin="round"
      d="M19.5 10.5c0 7.142-7.5 11.25-7.5 11.25S4.5 17.642 4.5 10.5a7.5 7.5 0 1 1 15 0Z"
    />
  </symbol>

  <!-- Booking -->
  <symbol
    viewBox="0 0 24 24"
    fill="none"
    xmlns="http://www.w3.org/2000/svg"
    id="booking"
  >
    <path
      fill-rule="evenodd"
      clip-rule="evenodd"
      d="M7 1C6.44772 1 6 1.44772 6 2V3H5C3.34315 3 2 4.34315 2 6V20C2 21.6569 3.34315 23 5 23H13.101C12.5151 22.4259 12.0297 21.7496 11.6736 21H5C4.44772 21 4 20.5523 4 20V11H20V11.2899C20.7224 11.5049 21.396 11.8334 22 12.2547V6C22 4.34315 20.6569 3 19 3H18V2C18 1.44772 17.5523 1 17 1C16.4477 1 16 1.44772 16 2V3H8V2C8 1.44772 7.55228 1 7 1ZM16 6V5H8V6C8 6.55228 7.55228 7 7 7C6.44772 7 6 6.55228 6 6V5H5C4.44772 5 4 5.44772 4 6V9H20V6C20 5.44772 19.5523 5 19 5H18V6C18 6.55228 17.5523 7 17 7C16.4477 7 16 6.55228 16 6Z"
      fill="currentColor"
    ></path>
    <path
      d="M15.2929 17.7071C15.6834 17.3166 16.3166 17.3166 16.7071 17.7071L17.3483 18.3482L19.2473 16.4491C19.6379 16.0586 20.271 16.0586 20.6616 16.4491C21.0521 16.8397 21.0521 17.4728 20.6616 17.8634L18.1213 20.4036C18.0349 20.49 17.9367 20.5573 17.8318 20.6054C17.4488 20.8294 16.9488 20.7772 16.6203 20.4487L15.2929 19.1213C14.9024 18.7308 14.9024 18.0976 15.2929 17.7071Z"
      fill="currentColor"
    ></path>
    <path
      fill-rule="evenodd"
      clip-rule="evenodd"
      d="M24 18C24 21.3137 21.3137 24 18 24C14.6863 24 12 21.3137 12 18C12 14.6863 14.6863 12 18 12C21.3137 12 24 14.6863 24 18ZM13.9819 18C13.9819 20.2191 15.7809 22.0181 18 22.0181C20.2191 22.0181 22.0181 20.2191 22.0181 18C22.0181 15.7809 20.2191 13.9819 18 13.9819C15.7809 13.9819 13.9819 15.7809 13.9819 18Z"
      fill="currentColor"
    ></path>
  </symbol>

  <!-- Notification -->
  <symbol
    viewBox="0 0 24 24"
    fill="none"
    xmlns="http://www.w3.org/2000/svg"
    id="notification"
  >
    <path
      fill-rule="evenodd"
      clip-rule="evenodd"
      d="M6.31317 12.463C6.20006 9.29213 8.60976 6.6252 11.701 6.5C14.7923 6.6252 17.202 9.29213 17.0889 12.463C17.0889 13.78 18.4841 15.063 18.525 16.383C18.525 16.4017 18.525 16.4203 18.525 16.439C18.5552 17.2847 17.9124 17.9959 17.0879 18.029H13.9757C13.9786 18.677 13.7404 19.3018 13.3098 19.776C12.8957 20.2372 12.3123 20.4996 11.701 20.4996C11.0897 20.4996 10.5064 20.2372 10.0923 19.776C9.66161 19.3018 9.42346 18.677 9.42635 18.029H6.31317C5.48869 17.9959 4.84583 17.2847 4.87602 16.439C4.87602 16.4203 4.87602 16.4017 4.87602 16.383C4.91795 15.067 6.31317 13.781 6.31317 12.463Z"
      stroke="currentColor"
      stroke-width="1.5"
      stroke-linecap="round"
      stroke-linejoin="round"
    ></path>
    <path
      d="M9.42633 17.279C9.01212 17.279 8.67633 17.6148 8.67633 18.029C8.67633 18.4432 9.01212 18.779 9.42633 18.779V17.279ZM13.9757 18.779C14.3899 18.779 14.7257 18.4432 14.7257 18.029C14.7257 17.6148 14.3899 17.279 13.9757 17.279V18.779ZM12.676 5.25C13.0902 5.25 13.426 4.91421 13.426 4.5C13.426 4.08579 13.0902 3.75 12.676 3.75V5.25ZM10.726 3.75C10.3118 3.75 9.97601 4.08579 9.97601 4.5C9.97601 4.91421 10.3118 5.25 10.726 5.25V3.75ZM9.42633 18.779H13.9757V17.279H9.42633V18.779ZM12.676 3.75H10.726V5.25H12.676V3.75Z"
      fill="currentColor"
    ></path>
  </symbol>

  <!-- Price/ Cash -->
  <symbol
    xmlns="http://www.w3.org/2000/svg"
    fill="none"
    viewBox="0 0 24 24"
    stroke-width="1.5"
    stroke="currentColor"
    class="size-6"
    id="icon-price1"
  >
    <path
      stroke-linecap="round"
      stroke-linejoin="round"
      d="M2.25 18.75a60.07 60.07 0 0 1 15.797 2.101c.727.198 1.453-.342 1.453-1.096V18.75M3.75 4.5v.75A.75.75 0 0 1 3 6h-.75m0 0v-.375c0-.621.504-1.125 1.125-1.125H20.25M2.25 6v9m18-10.5v.75c0 .414.336.75.75.75h.75m-1.5-1.5h.375c.621 0 1.125.504 1.125 1.125v9.75c0 .621-.504 1.125-1.125 1.125h-.375m1.5-1.5H21a.75.75 0 0 0-.75.75v.75m0 0H3.75m0 0h-.375a1.125 1.125 0 0 1-1.125-1.125V15m1.5 1.5v-.75A.75.75 0 0 0 3 15h-.75M15 10.5a3 3 0 1 1-6 0 3 3 0 0 1 6 0Zm3 0h.008v.008H18V10.5Zm-12 0h.008v.008H6V10.5Z"
    />
  </symbol>

  <symbol
    viewBox="-1.5 0 32 32"
    version="1.1"
    xmlns="http://www.w3.org/2000/svg"
    xmlns:xlink="http://www.w3.org/1999/xlink"
    fill="currentColor"
    id="icon-price"
  >
    <path
      d="M16.784 10.755c-1.737 0-3.147 1.409-3.147 3.147s1.41 3.148 3.147 3.148c1.739 0 3.147-1.409 3.147-3.148s-1.409-3.147-3.147-3.147zM16.784 16c-1.156 0-2.098-0.941-2.098-2.099s0.941-2.098 2.098-2.098c1.158 0 2.098 0.941 2.098 2.098s-0.941 2.099-2.098 2.099z"
      fill="currentColor"
    ></path>
    <path
      d="M4.196 6.034v15.735h25.176v-15.735h-25.176zM28.324 9.583v11.137h-23.078v-13.637h23.078v2.5z"
      fill="currentColor"
    ></path>
    <path
      d="M23.746 22.819h-20.599v-14.686h-1.049v15.735h25.177v-1.049h-1.049z"
      fill="currentColor"
    ></path>
    <path
      d="M21.648 24.917h-20.599v-14.686h-1.049v15.735h25.177v-1.049h-1.049z"
      fill="currentColor"
    ></path>
    <path
      d="M6.819 8.165h3.147v1.049h-3.147v-1.049z"
      fill="currentColor"
    ></path>
    <path
      d="M6.819 18.623h3.147v1.049h-3.147v-1.049z"
      fill="currentColor"
    ></path>
    <path
      d="M23.603 8.165h3.147v1.049h-3.147v-1.049z"
      fill="currentColor"
    ></path>
    <path
      d="M23.603 18.623h3.147v1.049h-3.147v-1.049z"
      fill="currentColor"
    ></path>
  </symbol>

  <!-- Currency -->
  <symbol
    viewBox="0 0 48 48"
    xmlns="http://www.w3.org/2000/svg"
    fill="currentColor"
    id="currency1"
  >
    <path
      d="M44,7.1V14a2,2,0,0,1-2,2H35a2,2,0,0,1-2-2.3A2.1,2.1,0,0,1,35.1,12h2.3A18,18,0,0,0,6.1,22.2a2,2,0,0,1-2,1.8h0a2,2,0,0,1-2-2.2A22,22,0,0,1,40,8.9V7a2,2,0,0,1,2.3-2A2.1,2.1,0,0,1,44,7.1Z"
    ></path>
    <path
      d="M4,40.9V34a2,2,0,0,1,2-2h7a2,2,0,0,1,2,2.3A2.1,2.1,0,0,1,12.9,36H10.6A18,18,0,0,0,41.9,25.8a2,2,0,0,1,2-1.8h0a2,2,0,0,1,2,2.2A22,22,0,0,1,8,39.1V41a2,2,0,0,1-2.3,2A2.1,2.1,0,0,1,4,40.9Z"
    ></path>
    <path
      d="M24.7,22c-3.5-.7-3.5-1.3-3.5-1.8s.2-.6.5-.9a3.4,3.4,0,0,1,1.8-.4,6.3,6.3,0,0,1,3.3.9,1.8,1.8,0,0,0,2.7-.5,1.9,1.9,0,0,0-.4-2.8A9.1,9.1,0,0,0,26,15.3V13a2,2,0,0,0-4,0v2.2c-3,.5-5,2.5-5,5.2s3.3,4.9,6.5,5.5,3.3,1.3,3.3,1.8-1.1,1.4-2.5,1.4h0a6.7,6.7,0,0,1-4.1-1.3,2,2,0,0,0-2.8.6,1.8,1.8,0,0,0,.3,2.6A10.9,10.9,0,0,0,22,32.8V35a2,2,0,0,0,4,0V32.8a6.3,6.3,0,0,0,3-1.3,4.9,4.9,0,0,0,2-4h0C31,23.8,27.6,22.6,24.7,22Z"
    ></path>
  </symbol>

  <symbol
    version="1.1"
    id="currency1"
    xmlns="http://www.w3.org/2000/svg"
    xmlns:xlink="http://www.w3.org/1999/xlink"
    viewBox="0 0 512 512"
    xml:space="preserve"
    fill="currentColor"
  >
    <g id="SVGRepo_bgCarrier" stroke-width="0"></g>
    <g
      id="SVGRepo_tracerCarrier"
      stroke-linecap="round"
      stroke-linejoin="round"
    ></g>
    <g id="SVGRepo_iconCarrier">
      <style type="text/css">
        .st0 {
          fill: #000000;
        }
      </style>
      <g>
        <polygon
          class="st0"
          points="190.484,410.594 190.484,381.391 229.688,381.391 229.688,378.516 229.688,360.156 229.688,360.109 190.484,360.109 190.484,345.938 194.281,340.031 229.688,340.031 229.688,335.781 229.688,322.844 229.688,318.594 208.078,318.594 226.031,290.656 223.281,290.656 205.391,290.656 202.656,290.656 178.281,328.547 153.953,290.656 151.219,290.656 133.313,290.656 130.578,290.656 148.531,318.594 126.938,318.594 126.938,322.844 126.938,335.781 126.938,340.031 162.328,340.031 166.125,345.969 166.125,360.109 126.938,360.109 126.938,360.156 126.938,378.516 126.938,381.391 166.125,381.391 166.125,410.594 "
        ></polygon>
        <path
          class="st0"
          d="M178.313,189.25c-89.125,0-161.375,72.25-161.375,161.375S89.188,512,178.313,512 s161.375-72.25,161.375-161.375S267.438,189.25,178.313,189.25z M178.313,486.781c-75.094,0-136.156-61.078-136.156-136.156 s61.063-136.156,136.156-136.156c75.063,0,136.156,61.078,136.156,136.156S253.375,486.781,178.313,486.781z"
        ></path>
        <path
          class="st0"
          d="M163.844,243l0.641-0.047c4.547-0.578,9.203-0.859,13.828-0.859c1.25,0,2.5,0.016,3.75,0.063h0.188 c2.703,0,4.938-2.141,5.031-4.875c0.094-2.781-2.094-5.125-4.875-5.203l-0.5-0.016l0,0h-0.063h-0.016h-0.047h-0.016h-0.047h-0.016 h-0.016l-0.078-0.016h-0.047l0,0c-0.75-0.016-1.5-0.031-2.25-0.047h-0.125h-0.031h-0.031h-0.016h-0.078l0,0H179h-0.031h-0.031 h-0.031h-0.031h-0.047h-0.016h-0.047h-0.016h-0.047h-0.016h-0.047h-0.016h-0.047h-0.016H178.5h-0.063h-0.016h-0.047l0,0h-0.063 h-0.063h-0.016h-0.047l0,0h-0.047h-0.016h-0.047h-0.016H178l0,0h-0.047h-0.016h-0.031h-0.031h-0.031h-0.016h-0.047h-0.031h-0.031 h-0.031h-0.031h-0.016h-0.047l0,0h-0.063h-0.016h-0.047l0,0h-0.047h-0.016h-0.047h-0.016h-0.063l0,0h-0.047h-0.016h-0.031h-0.031 h-0.031h-0.031h-0.031h-0.031H177h-0.031h-0.031h-0.016l-0.047,0.016l0,0h-0.063h-0.016h-0.047l0,0h-0.047h-0.016h-0.047h-0.016 h-0.047h-0.016h-0.031H176.5h-0.031h-0.031h-0.031h-0.016h-0.047h-0.031h-0.031h-0.016l-0.047,0.016l0,0h-0.063l0,0h-0.063l0,0 h-0.047h-0.016h-0.047h-0.016h-0.047h-0.016h-0.047h-0.016h-0.031h-0.031h-0.031h-0.016h-0.047l0,0h-0.063h-0.016h-0.047h-0.016 H175.5l0,0h-0.047h-0.016h-0.063l0,0h-0.047h-0.016l-0.047,0.016h-0.016h-0.031h-0.016h-0.063h-0.016h-0.031h-0.031h-0.031h-0.016 h-0.047h-0.016l-0.047,0.016h-0.016h-0.047l0,0h-0.047h-0.016h-0.047h-0.016h-0.063l0,0h-0.031h-0.031h-0.031h-0.031H174.5h-0.016 h-0.047h-0.031h-0.031h-0.016h-0.047l0,0l-0.047,0.016h-0.016h-0.063h-0.016h-0.031h-0.016h-0.047h-0.016h-0.031H174l-0.031,0.016 h-0.031h-0.031h-0.031h-0.031h-0.016h-0.047l0,0h-0.063h-0.016h-0.047l0,0h-0.047h-0.016h-0.047h-0.016h-0.047l-0.016,0.016h-0.047 h-0.016h-0.031h-0.031h-0.031h-0.016h-0.047h-0.016h-0.047h-0.016h-0.047l0,0h-0.063l0,0L173,232.125h-0.063l0,0h-0.047h-0.016 h-0.031h-0.016h-0.063h-0.016h-0.031h-0.031h-0.031h-0.016h-0.047l0,0l-0.063,0.016l0,0h-0.063l0,0h-0.063l0,0l-0.047,0.016h-0.016 h-0.109h-0.016h-0.031h-0.016h-0.047H172h-0.016l-0.047,0.016l0,0h-0.063l0,0l-0.109,0.016h-0.016h-0.047h-0.016h-0.031h-0.016 h-0.109h-0.016h-0.047l0,0l-0.063,0.016h-0.125l0,0l-0.047,0.016h-0.016h-0.047h-0.109h-0.016H171h-0.016l-0.047,0.016h-0.125 l-0.047,0.016h-0.016h-0.172h-0.047h-0.016l-0.047,0.016l0,0h-0.125l-0.063,0.016l0,0h-0.219h-0.016 c-2.297,0.156-4.578,0.375-6.828,0.672c-2.766,0.359-4.719,2.875-4.375,5.641C159.172,241.141,161.344,243,163.844,243z"
        ></path>
        <path
          class="st0"
          d="M133.813,245.969c-0.859-1.813-2.656-2.859-4.547-2.859c-0.734,0-1.469,0.156-2.172,0.484 c-1.719,0.828-3.406,1.688-5.063,2.594l-0.313,0.156l-0.063,0.031l-0.094,0.063l0,0l-0.063,0.016v0.016l-0.094,0.047v0.016 l-0.047,0.016l-0.016,0.016l-0.031,0.016h-0.016l-0.047,0.016l-0.016,0.016l-0.031,0.016l-0.016,0.016l-0.031,0.016h-0.016 l-0.047,0.031h-0.016l-0.031,0.031h-0.016L121,246.75h-0.016l-0.047,0.016l-0.016,0.016l-0.031,0.016l-0.016,0.016l-0.031,0.016 l-0.016,0.016h-0.031l-0.047,0.031v0.016l-0.031,0.016h-0.031l-0.031,0.031l0,0l-0.063,0.016v0.016L120.563,247h-0.031h-0.016 l-0.016,0.031l-0.063,0.031l0,0l-0.031,0.016h-0.031l-0.031,0.016v0.016l-0.109,0.047l-0.031,0.031h-0.016l-0.109,0.063 l-0.047,0.031l-0.156,0.078c-2.031,1.172-4.031,2.375-5.984,3.641c-2.328,1.516-2.984,4.641-1.484,6.969 c0.969,1.484,2.594,2.297,4.25,2.297c0.938,0,1.875-0.266,2.734-0.813c3.859-2.5,7.922-4.766,12.063-6.766 C133.969,251.484,135.031,248.469,133.813,245.969z"
        ></path>
        <path
          class="st0"
          d="M142.5,453.125c-4.344-1.516-8.625-3.328-12.734-5.391c-0.734-0.359-1.5-0.531-2.266-0.531 c-1.844,0-3.625,1.016-4.5,2.797c-1.25,2.484-0.25,5.5,2.25,6.75c1.531,0.781,3.094,1.516,4.688,2.219l0.156,0.063v0.016 l0.156,0.078l0,0l0.063,0.016l0.047,0.031h0.016l0.031,0.016h0.016l0.047,0.016v0.016l0.063,0.016l0.031,0.016l0.031,0.016 l0.031,0.016l0,0l0.063,0.031l0.047,0.016h0.016l0.031,0.031h0.016l0.047,0.016l0,0l0.063,0.031l0,0l0.031,0.016l0.031,0.016H131 l0.016,0.016l0.047,0.016l0.016,0.016l0.031,0.016h0.016l0.031,0.016h0.016l0.031,0.016l0.047,0.016l0.016,0.016h0.031l0.016,0.016 l0.031,0.016h0.016l0.047,0.031h0.031l0.016,0.016l0.031,0.016h0.016l0.031,0.016l0.063,0.031l0,0l0.031,0.016h0.016l0.031,0.016 h0.016l0.094,0.047l0.031,0.016l0.031,0.016l0,0l0.109,0.047l0.016,0.016H132l0.016,0.016h0.031h0.016l0.063,0.031l0.016,0.016 h0.016l0.031,0.016l0.031,0.016l0,0l0.125,0.047v0.016h0.031l0.016,0.016l0.109,0.031v0.016h0.047l0.016,0.016l0.109,0.047h0.016 l0.031,0.016v0.016l0.125,0.047h0.031l0.016,0.016l0.156,0.063h0.016l0.156,0.063v0.016l0.031,0.016h0.016l0.109,0.031l0.016,0.016 l0.031,0.016h0.016l0.109,0.047h0.016l0.031,0.016l0,0l0.031,0.031h0.016l0.125,0.047l0.031,0.016h0.016l0.125,0.047l0.031,0.016 l0,0l0.125,0.063h0.031l0.031,0.016l0.109,0.047h0.047v0.016l0.125,0.047l0,0l0.031,0.016h0.016l0.031,0.016h0.016l0.094,0.063 h0.031h0.031V461l0.109,0.016l0.016,0.016h0.031l0.031,0.016l0.016,0.016h0.016l0.063,0.031h0.016l0.031,0.016l0.016,0.016h0.031 h0.016l0.047,0.016l0.031,0.016h0.031l0.016,0.016l0.016,0.016h0.031l0.047,0.031h0.016l0.031,0.016l0.031,0.016h0.031l0.016,0.016 l0.016,0.016l0.047,0.016h0.016l0.031,0.016h0.031l0.031,0.016h0.016l0.047,0.016l0.016,0.016l0.031,0.016h0.016l0.031,0.016 l0.031,0.016l0.031,0.016h0.031l0.031,0.016h0.016l0.031,0.031h0.016l0.047,0.016H136l0.031,0.016l0.031,0.016h0.031l0.016,0.016 l0.047,0.016l0.063,0.016l0.047,0.031h0.016l0.031,0.016l0.063,0.016l0,0l0.063,0.031l0,0l0.047,0.016h0.016l0.094,0.047 l0.063,0.016c0.844,0.313,1.672,0.609,2.516,0.906c0.547,0.203,1.109,0.297,1.672,0.297c2.063,0,4.031-1.313,4.75-3.391 C146.516,456.922,145.125,454.047,142.5,453.125z"
        ></path>
        <path
          class="st0"
          d="M92.609,417.234c-1-1.266-2.484-1.938-3.984-1.938c-1.078,0-2.172,0.344-3.094,1.063 c-2.188,1.703-2.594,4.859-0.891,7.063c0.922,1.188,1.859,2.328,2.813,3.484l0,0L87.531,427l0.031,0.031v0.016l0.094,0.094l0,0 l0.016,0.016l0.016,0.031l0.031,0.016v0.016l0.031,0.047l0.031,0.016v0.031l0.031,0.016v0.016l0.031,0.031l0.031,0.016l0.016,0.031 l0.016,0.016l0.016,0.031l0.016,0.016l0.031,0.031l0,0L88,427.563h0.016l0.016,0.031l0.031,0.016l0.031,0.047l0,0l0.031,0.031l0,0 l0.031,0.047l0.016,0.016l0.063,0.078l0.016,0.016l0.031,0.031l0,0l0.078,0.094l0.031,0.047c2.016,2.328,4.109,4.578,6.281,6.734 c0.984,0.984,2.266,1.469,3.547,1.469c1.313,0,2.594-0.5,3.594-1.484c1.953-1.969,1.938-5.172-0.031-7.141 C98.516,424.359,95.438,420.875,92.609,417.234z"
        ></path>
        <path
          class="st0"
          d="M65.344,343.844c2.547,0,4.734-1.938,5-4.531c0.469-4.594,1.25-9.172,2.313-13.641 c0.625-2.703-1.063-5.422-3.766-6.063l-1.156-0.125c-2.297,0-4.359,1.563-4.906,3.875c-1.141,4.859-1.984,9.844-2.516,14.922 c-0.281,2.75,1.719,5.25,4.5,5.531L65.344,343.844z"
        ></path>
        <path
          class="st0"
          d="M93.781,282.547c1.75-2.172,1.406-5.359-0.766-7.094c-0.922-0.766-2.047-1.125-3.172-1.125 c-1.469,0-2.906,0.641-3.906,1.875c-0.828,1.016-1.625,2.047-2.422,3.094l-0.078,0.109l-0.031,0.031l0,0l-0.094,0.141l-0.016,0.016 l-0.109,0.125l-0.094,0.141v0.016l-0.109,0.141l-0.203,0.281c-1.344,1.797-2.625,3.641-3.844,5.531h-0.016L78.828,286l-0.016,0.016 l-0.063,0.078l-0.016,0.031l-0.016,0.047l-0.063,0.063l-0.016,0.047h-0.016v0.031l-0.031,0.016l-0.031,0.047v0.016l-0.016,0.016 l-0.016,0.031l-0.016,0.031l-0.016,0.016l-0.016,0.031l-0.016,0.031l-0.016,0.016l-0.016,0.031l-0.016,0.016l-0.016,0.031 l-0.016,0.016l-0.016,0.047l-0.016,0.016l-0.016,0.016l-0.016,0.016l-0.016,0.031l-0.016,0.016l-0.031,0.047v0.016l-0.016,0.031 l-0.016,0.016l-0.016,0.031h-0.016l-0.063,0.109v0.016c-0.328,0.484-0.641,0.984-0.938,1.484c-1.469,2.375-0.734,5.484,1.641,6.953 c0.828,0.5,1.75,0.75,2.656,0.75c1.688,0,3.344-0.859,4.281-2.406C88.188,289.922,90.891,286.125,93.781,282.547z"
        ></path>
        <path
          class="st0"
          d="M72.234,373.75c-0.516-2.359-2.609-3.969-4.922-3.969l-1.078,0.109c-2.719,0.594-4.453,3.266-3.859,5.984 c1.078,4.969,2.469,9.828,4.156,14.563c0.734,2.063,2.672,3.344,4.75,3.344c0.563,0,1.125-0.109,1.688-0.297 c2.625-0.938,3.984-3.813,3.063-6.453C74.484,382.719,73.203,378.25,72.234,373.75z"
        ></path>
        <path
          class="st0"
          d="M238.297,442.031c-0.906,0-1.828,0.266-2.672,0.781c-3.891,2.422-8,4.625-12.172,6.547 c-2.531,1.156-3.641,4.156-2.484,6.688c0.844,1.844,2.688,2.953,4.594,2.953c0.703,0,1.406-0.156,2.094-0.469 c2.781-1.281,5.516-2.656,8.188-4.141l0.047-0.031h0.016l0.094-0.063l0,0l0.047-0.031h0.016l0.094-0.047l0,0l0.031-0.031h0.016 l0.047-0.031l0,0l0.047-0.031h0.016l0.031-0.016l0.031-0.016l0.031-0.016l0,0l0.063-0.031v-0.016l0.031-0.016l0.031-0.016h0.016 h0.016l0.047-0.047l0.016-0.016h0.031l0.031-0.016l0.016-0.016h0.016l0.031-0.031l0.047-0.016l0.016-0.016l0.031-0.016v-0.016 h0.031l0.016-0.016l0.078-0.047l0.031-0.016l0,0l0.031-0.016h0.016l0.109-0.063l0.031-0.031c1.281-0.734,2.547-1.5,3.797-2.266 c2.359-1.469,3.078-4.578,1.609-6.938C241.625,442.891,239.984,442.031,238.297,442.031z"
        ></path>
        <path
          class="st0"
          d="M276.781,407.469c-0.844-0.531-1.781-0.781-2.719-0.781c-1.656,0-3.281,0.813-4.25,2.328 c-2.469,3.859-5.219,7.625-8.172,11.156c-1.781,2.141-1.5,5.328,0.641,7.109c0.938,0.781,2.094,1.156,3.219,1.156 c1.453,0,2.875-0.609,3.875-1.813c2.625-3.109,5.063-6.375,7.344-9.766l0.031-0.031l0.016-0.016l0.047-0.094h0.016l0.031-0.047 v-0.016l0.031-0.031l0,0l0.031-0.047l0.016-0.016l0.016-0.031l0.016-0.016l0.016-0.047H277l0.016-0.031l0.016-0.031l0.031-0.031 l0.031-0.047v-0.016l0.031-0.031v-0.016l0.031-0.031v-0.016l0.031-0.031v-0.016l0.031-0.031l0.016-0.031l0.016-0.016v-0.031 l0.016-0.016l0.078-0.094v-0.016l0.016-0.016l0.016-0.016l0.063-0.109l0,0l0.016-0.031l0.016-0.016l0.094-0.141l0.766-1.172 C279.813,412.094,279.125,408.969,276.781,407.469z"
        ></path>
        <path
          class="st0"
          d="M289.703,333.406l0.984-0.094c2.734-0.547,4.5-3.188,3.969-5.922l-0.125-0.625v-0.016v-0.016l-0.016-0.016 l-0.016-0.125v-0.016l-0.016-0.031v-0.016l-0.031-0.125l0,0l-0.016-0.031v-0.031v-0.031v-0.016l-0.016-0.078l-0.016-0.016v-0.031 v-0.031l-0.016-0.016v-0.031l-0.016-0.031v-0.047V326l-0.016-0.031v-0.031l-0.016-0.031v-0.031v-0.031l-0.016-0.031v-0.016 l-0.016-0.031v-0.031v-0.031v-0.016l-0.031-0.047v-0.016v-0.031v-0.031v-0.031l-0.016-0.031l-0.016-0.047v-0.047v-0.016 l-0.016-0.047l-0.016-0.016v-0.031v-0.016l-0.016-0.063l-0.016-0.047v-0.016v-0.047L294.156,325l0,0l-0.016-0.063l-0.047-0.188l0,0 v-0.047l-0.031-0.109v-0.016l-0.016-0.047l0,0L294,324.359l-0.031-0.234h-0.016c-0.578-2.594-1.266-5.125-2.016-7.656l-0.063-0.234 l-0.109-0.328l-0.063-0.219h-0.016l-0.031-0.172l-0.031-0.063l0,0l-0.047-0.172l-0.047-0.156l-0.031-0.063l0,0l-0.031-0.109v-0.016 l-0.016-0.031l-0.016-0.016l-0.016-0.109h-0.016v-0.047v-0.016l-0.031-0.047v-0.016v-0.047l-0.031-0.047v-0.016l-0.016-0.047l0,0 l-0.016-0.063l-0.031-0.047v-0.016v-0.031v-0.016l-0.031-0.047v-0.016l-0.016-0.047l0,0l-0.016-0.047v-0.016l-0.016-0.031 l-0.016-0.031v-0.031l0,0L291.172,314h-0.016v-0.047l-0.016-0.016l-0.016-0.031v-0.031l-0.016-0.031l-0.016-0.031v-0.031v-0.031 l-0.016-0.016v-0.031l-0.016-0.016l-0.016-0.047l-0.016-0.031v-0.016v-0.031l-0.016-0.031L291,313.516V313.5v-0.031l-0.031-0.063 v-0.016v-0.031l-0.016-0.016l-0.016-0.031v-0.016l-0.016-0.047l-0.016-0.031v-0.031v-0.016l-0.016-0.016l-0.016-0.031l-0.031-0.109 V313h-0.016l-0.016-0.031v-0.031v-0.031l-0.031-0.063l-0.016-0.047l-0.016-0.016c-0.703-2.125-2.656-3.438-4.766-3.438 c-0.531,0-1.078,0.078-1.609,0.25c-2.641,0.891-4.063,3.766-3.172,6.406c1.453,4.344,2.672,8.844,3.547,13.344 C285.234,331.75,287.344,333.406,289.703,333.406z"
        ></path>
        <path
          class="st0"
          d="M190.813,458.484l-0.563,0.031c-3.938,0.438-7.953,0.656-11.938,0.656c-0.641,0-1.266,0-1.891-0.016h-0.094 c-2.734,0-4.984,2.188-5.031,4.953c-0.047,2.781,2.156,5.078,4.938,5.125c0.531,0.016,1.047,0.016,1.594,0.016h0.047l0,0h0.078 h0.016H178h0.031h0.031h0.031h0.031h0.047h0.016h0.047h0.016h0.063h0.047h0.016h0.031h0.016h0.031h0.016h0.031h0.031h0.031h0.016 h0.031h0.016h0.031h0.016h0.031h0.016h0.031h0.031h0.031h0.016h0.031h0.016h0.031h0.031h0.094l0,0h0.047h0.016h0.031h0.031h0.031 l0,0h0.031h0.031h0.031h0.016h0.031h0.016h0.031h0.031h0.031h0.016h0.016h0.031h0.031h0.016h0.031h0.016h0.109h0.016h0.031h0.016 h0.031h0.016h0.031h0.031h0.031l0,0h0.031h0.031H180h0.016h0.031h0.016h0.031h0.031h0.031h0.016h0.047l0,0l0.156-0.016l0,0h0.047 h0.047h0.016h0.031h0.016h0.031h0.016h0.047l0,0h0.047h0.016h0.031h0.016h0.031h0.016h0.031h0.031l0.031-0.016h0.016h0.203h0.047 h0.047l0,0h0.063l0,0h0.031h0.016h0.047l0,0h0.047h0.016h0.031h0.063l0.406-0.016h0.063l0.047-0.016 c3.141-0.078,6.266-0.313,9.344-0.641c2.766-0.313,4.766-2.797,4.453-5.578C195.531,460.406,193.344,458.484,190.813,458.484z"
        ></path>
        <path
          class="st0"
          d="M291.656,359.406l-0.594-0.031c-2.531,0-4.703,1.875-5.016,4.438c-0.547,4.563-1.391,9.141-2.531,13.594 c-0.688,2.703,0.953,5.438,3.641,6.125l1.25,0.156c2.25,0,4.297-1.516,4.875-3.781c0.266-1.031,0.516-2.031,0.75-3.063v-0.016 v-0.047l0.031-0.125l0,0v-0.031l0.016-0.031l0.016-0.031v-0.016v-0.063l0.016-0.016v-0.031l0.016-0.016v-0.031v-0.031v-0.016 l0.016-0.047l0.016-0.016v-0.031v-0.031v-0.031l0.016-0.031l0.016-0.031v-0.016v-0.047l0.016-0.063h0.016v-0.047v-0.016 l0.031-0.109v-0.016v-0.031v-0.016l0.031-0.047l0.016-0.125l0,0l0.016-0.047l0.031-0.172c0.719-3.406,1.297-6.859,1.719-10.344 C296.406,362.25,294.438,359.75,291.656,359.406z"
        ></path>
        <path
          class="st0"
          d="M215.875,248.766c4.313,1.594,8.563,3.484,12.641,5.609c0.75,0.391,1.547,0.578,2.328,0.578 c1.813,0,3.578-0.984,4.484-2.703c1.297-2.469,0.328-5.516-2.141-6.813c-3.063-1.594-6.188-3.063-9.406-4.406l-0.156-0.063 l-0.047-0.016h-0.016l-0.094-0.047l-0.063-0.031l-0.109-0.047l-0.047-0.016l-0.172-0.063l-0.156-0.063l-0.016-0.016l-0.047-0.016 l-0.109-0.047l-0.063-0.016l-0.094-0.047l-0.063-0.016l-0.109-0.063l-0.047-0.016h-0.016l-0.156-0.063l-0.172-0.063v-0.016 c-0.875-0.344-1.766-0.688-2.656-1c-0.578-0.219-1.172-0.313-1.75-0.313c-2.047,0-3.969,1.25-4.719,3.281 C211.938,244.906,213.266,247.813,215.875,248.766z"
        ></path>
        <path
          class="st0"
          d="M269.188,287.516c1.047,0,2.109-0.328,3.016-1c2.234-1.672,2.672-4.844,1-7.063 c-1.688-2.266-3.453-4.453-5.297-6.578h-0.016l-0.078-0.078v-0.016l-0.031-0.031l-0.078-0.094l-0.016-0.016l-0.031-0.016v-0.016 l-0.031-0.047l-0.031-0.047l-0.031-0.047h-0.016l-0.047-0.031l0,0l-0.031-0.047v-0.016l-0.031-0.031h-0.016l-0.016-0.031 l-0.031-0.031l-0.016-0.016l-0.016-0.016l-0.031-0.031v-0.016l-0.031-0.031v-0.016l-0.047-0.031l-0.016-0.016l-0.016-0.031 l-0.016-0.016l-0.016-0.016l-0.016-0.016L267.125,272l-0.016-0.031l-0.016-0.016l-0.031-0.016l-0.016-0.031h-0.016L267,271.859 l-0.016-0.016l-0.016-0.031l-0.016-0.016l-0.016-0.016l-0.063-0.063l-0.031-0.031l-0.016-0.016l-0.016-0.016l-0.063-0.094h-0.016 l-0.016-0.031h-0.016l-0.078-0.094v-0.016l-0.031-0.016v-0.031l-0.094-0.063v-0.016l-0.031-0.031v-0.016l-0.094-0.078l-0.031-0.031 v-0.016L266.234,271h-0.016l-0.094-0.125l-0.016-0.016l-0.234-0.25l0,0c-0.813-0.891-1.656-1.781-2.5-2.656 c-0.984-1.016-2.297-1.516-3.609-1.516c-1.266,0-2.531,0.469-3.516,1.422c-2,1.938-2.047,5.141-0.094,7.141 c3.188,3.281,6.219,6.844,9,10.5C266.125,286.828,267.656,287.516,269.188,287.516z"
        ></path>
        <path
          class="st0"
          d="M326.844,53.75l0.656-0.031c4.547-0.594,9.188-0.891,13.813-0.891c1.25,0,2.516,0.016,3.766,0.078h0.172 c2.703,0,4.938-2.156,5.031-4.875c0.094-2.781-2.078-5.125-4.859-5.219h-0.516l0,0h-0.063l0,0l-0.063-0.016h-0.016h-0.031h-0.031 h-0.078h-0.016h-0.047l0,0c-0.75-0.016-1.5-0.047-2.25-0.047h-0.125h-0.016h-0.047l0,0h-0.078h-0.016H342h-0.031h-0.031h-0.031 h-0.031h-0.031h-0.031h-0.031h-0.031h-0.031h-0.031h-0.047h-0.016h-0.031h-0.031H341.5l0,0h-0.063l0,0h-0.063l0,0h-0.063h-0.063 l0,0h-0.047h-0.016h-0.047h-0.016h-0.047h-0.016h-0.047H341h-0.031h-0.031h-0.031h-0.016h-0.047h-0.016h-0.047h-0.031h-0.031 h-0.016h-0.047l0,0h-0.063h-0.063l0,0h-0.047h-0.016h-0.047h-0.016h-0.047h-0.016h-0.047h-0.016h-0.031h-0.031h-0.031h-0.016 h-0.047h-0.016h-0.047h-0.031H340h-0.016h-0.047l0,0h-0.047h-0.016h-0.063l0,0h-0.047h-0.016h-0.047h-0.016h-0.031h-0.016 l-0.047,0.016h-0.031h-0.031H339.5h-0.031h-0.016h-0.047l0,0h-0.063h-0.016h-0.047h-0.016h-0.031h-0.016h-0.047h-0.016h-0.047 h-0.016h-0.047h-0.016L339,42.781h-0.031h-0.031h-0.016h-0.047h-0.031h-0.031h-0.031h-0.031h-0.016h-0.047l0,0h-0.063h-0.016 h-0.047l0,0h-0.047H338.5h-0.047h-0.016h-0.047h-0.016h-0.047h-0.016h-0.031h-0.031h-0.031h-0.016l-0.047,0.016h-0.031h-0.031 h-0.016h-0.047l0,0h-0.047h-0.016h-0.063l0,0h-0.063l0,0h-0.047l-0.016,0.016h-0.031h-0.031h-0.047h-0.016h-0.031h-0.031h-0.031 h-0.016H337.5l0,0h-0.063h-0.031h-0.031h-0.016h-0.031h-0.016h-0.047h-0.016h-0.047h-0.016l-0.031,0.016h-0.031h-0.031h-0.031 h-0.031h-0.016h-0.047h-0.031h-0.031l-0.016,0.016h-0.047l0,0h-0.063l0,0h-0.063l0,0h-0.047h-0.016h-0.047h-0.016h-0.031h-0.031 h-0.047h-0.016h-0.031h-0.031l-0.031,0.016h-0.016h-0.047l0,0h-0.063l0,0h-0.063h-0.016h-0.047l0,0h-0.047h-0.016H336l0,0h-0.047 h-0.016l-0.031,0.016h-0.031h-0.031h-0.016h-0.047h-0.016h-0.047h-0.016h-0.047l0,0h-0.063l0,0h-0.063l-0.047,0.016h-0.016h-0.047 h-0.016h-0.047h-0.016l-0.094,0.016h-0.016h-0.047h-0.016h-0.047H335l0,0h-0.047h-0.016l-0.047,0.016h-0.016h-0.094h-0.031 l-0.031,0.016h-0.016h-0.047h-0.016h-0.109l0,0h-0.063l0,0h-0.063l-0.109,0.016h-0.016h-0.031h-0.031l-0.031,0.016h-0.016h-0.109 H334l0,0h-0.063l0,0L333.813,43l0,0h-0.047h-0.016h-0.156h-0.016h-0.047l0,0h-0.063l-0.125,0.016h-0.047h-0.016l-0.219,0.016 c-2.313,0.156-4.594,0.391-6.844,0.672c-2.75,0.344-4.719,2.875-4.375,5.641C322.188,51.891,324.344,53.75,326.844,53.75z"
        ></path>
        <path
          class="st0"
          d="M296.828,56.719c-0.859-1.813-2.672-2.875-4.547-2.875c-0.75,0-1.484,0.156-2.188,0.5 c-1.719,0.828-3.406,1.688-5.063,2.594l-0.313,0.156l-0.063,0.031l-0.094,0.047v0.016l-0.047,0.016H284.5l-0.094,0.063l0,0 l-0.047,0.031h-0.016l-0.031,0.016v0.016l-0.063,0.031l0,0l-0.031,0.016h-0.031l-0.031,0.031h-0.016l-0.047,0.031l0,0l-0.031,0.031 h-0.031L284,57.484l-0.016,0.016l-0.047,0.016v0.016l-0.031,0.016l-0.031,0.016h-0.031l-0.016,0.016l-0.016,0.016l-0.047,0.031 h-0.016l-0.031,0.031h-0.016l-0.031,0.016l-0.016,0.016l-0.047,0.016l-0.016,0.016l-0.031,0.016l-0.016,0.016h-0.031l-0.016,0.016 l-0.063,0.047l-0.031,0.016h-0.016l-0.031,0.016h-0.016l-0.094,0.063h-0.016l-0.031,0.031L283.094,58l-0.047,0.031h-0.016 l-0.141,0.078c-2.047,1.156-4.031,2.359-5.984,3.641c-2.344,1.516-3,4.625-1.484,6.969c0.953,1.484,2.578,2.297,4.234,2.297 c0.938,0,1.891-0.266,2.734-0.813c3.859-2.5,7.922-4.766,12.063-6.766C296.969,62.234,298.031,59.219,296.828,56.719z"
        ></path>
        <path
          class="st0"
          d="M230.734,130.219c-2.281,0-4.359,1.563-4.906,3.891c-1.141,4.859-1.984,9.844-2.516,14.922 c-0.281,2.766,1.734,5.25,4.5,5.531l0.531,0.016c2.547,0,4.75-1.922,5-4.516c0.469-4.594,1.25-9.172,2.313-13.641 c0.625-2.719-1.047-5.422-3.75-6.063L230.734,130.219z"
        ></path>
        <path
          class="st0"
          d="M248.938,86.938c-0.813,1.031-1.625,2.063-2.422,3.109l-0.078,0.109l-0.031,0.031l-0.094,0.141l-0.109,0.141 l0,0l-0.109,0.156l-0.109,0.125v0.016l-0.203,0.281c-1.344,1.797-2.625,3.641-3.844,5.531l0,0l-0.094,0.141l-0.016,0.016 l-0.016,0.031l-0.047,0.063v0.016l-0.016,0.031h-0.016l-0.016,0.031v0.016L241.656,97l-0.016,0.016v0.016l-0.016,0.031h-0.016 l-0.031,0.063l-0.016,0.016l-0.016,0.016l-0.016,0.031v0.016l-0.031,0.031v0.016l-0.031,0.047l-0.016,0.016l-0.016,0.016v0.016 l-0.031,0.031v0.031l-0.031,0.031l-0.016,0.016l-0.016,0.047l0,0l-0.031,0.031v0.016l-0.031,0.047h-0.016l-0.016,0.047v0.016 l-0.031,0.031v0.016l-0.063,0.094c-0.328,0.5-0.641,1-0.953,1.516c-1.453,2.359-0.719,5.469,1.656,6.922 c0.828,0.516,1.734,0.766,2.641,0.766c1.688,0,3.344-0.859,4.297-2.422c2.406-3.906,5.094-7.703,7.984-11.297 c1.75-2.156,1.406-5.344-0.766-7.094c-0.922-0.75-2.047-1.109-3.156-1.109C251.391,85.078,249.938,85.719,248.938,86.938z"
        ></path>
        <path
          class="st0"
          d="M383.984,266.797c0.844,1.844,2.672,2.938,4.578,2.938c0.703,0,1.422-0.141,2.094-0.453 c2.797-1.281,5.531-2.656,8.188-4.141l0.063-0.031l0,0l0.094-0.063l0,0l0.047-0.016h0.016l0.094-0.063l0.047-0.031h0.016 l0.031-0.031h0.016l0.047-0.031l0,0l0.047-0.016l0.016-0.016l0.031-0.016l0.016-0.016l0.047-0.016v-0.016l0.031-0.016l0.031-0.016 l0.031-0.016v-0.016l0.063-0.016v-0.016l0.031-0.016h0.031l0.016-0.016l0.016-0.016l0.031-0.016l0.047-0.031h0.016l0.031-0.016 l0.016-0.016l0.031-0.016h0.016l0.063-0.047l0.031-0.016l0,0l0.047-0.016l0.109-0.078l0,0l0.047-0.016 c1.266-0.734,2.531-1.5,3.797-2.266c2.344-1.484,3.063-4.578,1.594-6.953c-0.969-1.516-2.594-2.375-4.281-2.375 c-0.922,0-1.844,0.25-2.672,0.781c-3.906,2.438-8,4.625-12.172,6.547C383.938,261.266,382.813,264.266,383.984,266.797z"
        ></path>
        <path
          class="st0"
          d="M424.641,230.906c-1.781,2.141-1.484,5.328,0.641,7.109c0.938,0.797,2.094,1.172,3.234,1.172 c1.453,0,2.875-0.609,3.859-1.813c2.625-3.109,5.063-6.375,7.344-9.766h0.016l0.031-0.047l0.063-0.094v-0.016l0.031-0.031h0.016 l0.031-0.047l0.016-0.063h0.016l0.016-0.031l0.016-0.031l0.031-0.016v-0.016l0.031-0.047v-0.016l0.031-0.031v-0.016l0.031-0.031 v-0.016l0.031-0.031v-0.016l0.031-0.016v-0.031l0.031-0.031v-0.031l0.031-0.031l0.016-0.016l0.016-0.016l0.016-0.031l0.016-0.016 l0.063-0.109l0,0l0.031-0.031l0,0l0.063-0.109v-0.016l0.031-0.016V226.5l0.094-0.141v-0.016l0.766-1.156 c1.484-2.344,0.813-5.469-1.531-6.969c-0.844-0.531-1.797-0.781-2.719-0.781c-1.672,0-3.297,0.813-4.25,2.313 C430.344,223.625,427.594,227.391,424.641,230.906z"
        ></path>
        <path
          class="st0"
          d="M453.781,123.547l-0.016-0.031c-0.703-2.109-2.672-3.422-4.781-3.422c-0.531,0-1.078,0.063-1.609,0.25 c-2.641,0.891-4.063,3.75-3.172,6.391c1.469,4.359,2.672,8.859,3.563,13.359c0.484,2.406,2.578,4.063,4.938,4.063l0.984-0.094 c2.734-0.547,4.5-3.188,3.969-5.938l-0.125-0.609V137.5v-0.031l0,0l-0.031-0.125v-0.016l-0.016-0.031v-0.016l-0.016-0.125v-0.016 l-0.016-0.016l-0.016-0.031v-0.031v-0.016l-0.016-0.078l-0.016-0.031v-0.016v-0.031v-0.031l-0.016-0.016v-0.047l-0.016-0.031 v-0.016v-0.031v-0.031l-0.031-0.031v-0.031v-0.031v-0.031l-0.016-0.031V136.5l-0.016-0.016v-0.031v-0.016l-0.016-0.047v-0.016 l-0.016-0.047v-0.016v-0.031v-0.031l-0.031-0.031v-0.016v-0.047v-0.016l-0.016-0.047v-0.016l-0.016-0.047l-0.016-0.063 l-0.016-0.047v-0.016v-0.047l-0.031-0.109v-0.016v-0.047l-0.016-0.016l-0.031-0.156l-0.016-0.016v-0.047l-0.031-0.125v-0.047 l-0.047-0.172v-0.016l-0.047-0.219l0,0c-0.594-2.594-1.266-5.156-2.031-7.656L454.875,127l-0.094-0.344l-0.016-0.016l-0.063-0.203 l-0.047-0.172v-0.016l-0.031-0.047l-0.047-0.172l-0.047-0.156v-0.016l-0.016-0.047H454.5l-0.031-0.109v-0.016v-0.047l-0.016-0.016 l-0.031-0.094l0,0l-0.016-0.063l-0.016-0.047l-0.016-0.016v-0.047l-0.016-0.047l-0.016-0.016v-0.047l-0.016-0.016l-0.016-0.031 v-0.016l-0.016-0.047v-0.016l-0.016-0.031v-0.031l-0.016-0.031v-0.016l-0.016-0.047l0,0l-0.031-0.047v-0.016v-0.047l-0.016-0.016 l-0.016-0.031v-0.016l-0.016-0.047v-0.016l-0.016-0.047v-0.016l-0.016-0.031l-0.016-0.016v-0.047l-0.016-0.016l-0.016-0.031V124.5 v-0.031l-0.016-0.016l-0.016-0.016v-0.047l-0.016-0.031l-0.016-0.016v-0.031v-0.031l-0.016-0.016L454,124.234v-0.031l-0.016-0.047 l-0.016-0.016v-0.031l-0.016-0.016l-0.016-0.031v-0.016V124l-0.031-0.031v-0.031v-0.016l-0.016-0.016v-0.031l-0.047-0.109v-0.016 v-0.031h-0.016l-0.016-0.031v-0.031l-0.031-0.063v-0.016V123.547z"
        ></path>
        <path
          class="st0"
          d="M339.234,280c0.547,0,1.063,0,1.594,0h0.016h0.031h0.016h0.078l0,0h0.047h0.016h0.031h0.031h0.031h0.047h0.016 h0.047h0.016h0.063h0.047h0.016h0.031h0.031h0.031l0,0h0.047h0.016h0.031h0.031h0.016h0.016h0.031h0.031h0.031h0.016h0.016h0.031 h0.031h0.031h0.016h0.016h0.031h0.031h0.094h0.016h0.047l0,0h0.031h0.031h0.031h0.016h0.031h0.016h0.031h0.031h0.016h0.031h0.016 h0.031h0.031h0.016h0.031h0.016h0.031h0.031h0.031l0,0h0.109h0.016h0.031h0.016h0.047l0,0h0.031h0.031h0.031h0.016h0.031h0.016H343 h0.031h0.031h0.016h0.016h0.031h0.031h0.016h0.047h0.156l0,0h0.047h0.016h0.031h0.016h0.047l0,0h0.047h0.016h0.031l0,0l0.047-0.031 h0.016h0.031h0.031h0.031h0.016h0.031h0.016h0.031h0.016h0.203h0.047h0.016h0.031h0.016h0.047h0.047h0.016h0.031h0.016h0.047l0,0 h0.047h0.047l0,0l0.406-0.031h0.063h0.063c3.125-0.094,6.25-0.313,9.328-0.641c2.766-0.297,4.766-2.797,4.469-5.563 c-0.281-2.578-2.469-4.5-5.016-4.5l-0.547,0.031c-3.938,0.438-7.969,0.656-11.953,0.656c-0.625,0-1.266-0.016-1.891-0.016h-0.078 c-2.75,0-5,2.203-5.047,4.938C334.25,277.641,336.469,279.922,339.234,280z"
        ></path>
        <path
          class="st0"
          d="M454.063,170.125c-2.516,0-4.688,1.875-5,4.438c-0.563,4.563-1.406,9.141-2.531,13.594 c-0.688,2.703,0.938,5.438,3.641,6.125l1.234,0.156c2.25,0,4.313-1.516,4.891-3.781c0.266-1.031,0.5-2.047,0.734-3.063v-0.016 v-0.047l0.031-0.125l0,0l0.016-0.047l0.016-0.016v-0.031v-0.016l0.016-0.063v-0.016l0.016-0.031v-0.031v-0.016v-0.031l0.016-0.031 l0.016-0.031v-0.031V187v-0.031l0.016-0.031l0.016-0.031v-0.031l0,0l0.016-0.063v-0.016l0.016-0.047v-0.016v-0.031v-0.016 l0.031-0.109v-0.016v-0.047h0.016l0.016-0.047l0.016-0.125l0.016-0.047v-0.016l0.031-0.156c0.719-3.406,1.297-6.859,1.719-10.359 c0.344-2.766-1.625-5.266-4.391-5.609L454.063,170.125z"
        ></path>
        <path
          class="st0"
          d="M385.531,51.266l-0.094-0.047h-0.016l-0.047-0.016l0,0l-0.172-0.063l-0.156-0.078h-0.016 c-0.875-0.344-1.75-0.688-2.656-1c-0.563-0.219-1.156-0.328-1.75-0.328c-2.047,0-3.969,1.266-4.719,3.297 c-0.969,2.625,0.375,5.516,2.984,6.484c4.297,1.594,8.547,3.484,12.641,5.609c0.734,0.375,1.531,0.563,2.313,0.563 c1.828,0,3.594-0.969,4.484-2.688c1.297-2.469,0.328-5.531-2.141-6.813c-3.047-1.594-6.188-3.063-9.391-4.406l0,0l-0.172-0.063 l-0.047-0.031l-0.109-0.031l-0.063-0.031l0,0l-0.094-0.047l-0.063-0.016l0,0l-0.156-0.063l-0.172-0.078h-0.016l-0.031-0.016 l-0.125-0.047l0,0l-0.047-0.016l-0.109-0.047v-0.016L385.531,51.266z"
        ></path>
        <path
          class="st0"
          d="M426.375,78.703c-0.984-1.016-2.297-1.516-3.609-1.516c-1.266,0-2.531,0.469-3.516,1.422 c-2,1.938-2.031,5.141-0.094,7.125c3.203,3.297,6.234,6.844,9,10.516c0.984,1.313,2.5,2.016,4.031,2.016 c1.063,0,2.125-0.328,3.031-1.016c2.219-1.656,2.672-4.813,1-7.063c-1.688-2.25-3.469-4.438-5.313-6.563l0,0l-0.078-0.094h-0.016 l-0.031-0.031v-0.016l-0.063-0.078l-0.016-0.016l-0.031-0.031h-0.016l-0.031-0.047l0,0l-0.031-0.047V83.25l-0.031-0.031h-0.016 l-0.031-0.031H430.5l-0.031-0.047v-0.016l-0.031-0.031v-0.016l-0.031-0.031h-0.016L430.359,83h-0.016l-0.031-0.031v-0.016 l-0.031-0.031v-0.016l-0.031-0.031l-0.031-0.016v-0.016l-0.031-0.031l-0.016-0.016l-0.016-0.016l-0.031-0.047l-0.016-0.016 l-0.016-0.031l-0.016-0.016l-0.016-0.016l-0.031-0.016L430,82.609l-0.016-0.016l-0.016-0.031v-0.016l-0.031-0.016l-0.063-0.078 l-0.016-0.016l-0.016-0.031h-0.031l-0.063-0.094v-0.016l-0.031-0.016h-0.016l-0.078-0.094v-0.016l-0.031-0.031l0,0l-0.094-0.094 l-0.016-0.031L429.469,82l-0.078-0.078v-0.016l-0.031-0.031h-0.016l-0.109-0.125l0,0l-0.109-0.125v-0.016l-0.25-0.25v-0.016 C428.063,80.469,427.219,79.578,426.375,78.703z"
        ></path>
        <path
          class="st0"
          d="M63.375,123.656c13.219-19.563,29.75-36.641,48.688-50.625L123.813,98l67.047-70.234L88.656,23.25l12.469,26.5 C78.156,65.969,58.25,86.219,42.5,109.531C17.563,146.406,3,190.938,3,238.781h25.219 C28.219,196.078,41.188,156.531,63.375,123.656z"
        ></path>
        <path
          class="st0"
          d="M483.781,285.828c0,41.422-12.188,79.891-33.188,112.172c-13.578,20.844-30.875,39.031-50.875,53.75 l-9.422-20.031l-67.047,70.219l102.219,4.516l-14.859-31.563c24.156-16.984,44.984-38.359,61.109-63.141 C495.281,375.531,509,332.234,509,285.828H483.781z"
        ></path>
        <path
          class="st0"
          d="M180,164.078c8.578,0.078,17,0.734,25.266,1.922c-0.047-1.531-0.109-3.063-0.109-4.625 c0-75.078,61.078-136.156,136.156-136.156s136.156,61.078,136.156,136.156c0,69.813-52.813,127.469-120.563,135.234 c2.422,8.031,4.328,16.266,5.672,24.703c79.063-10.422,140.109-78.031,140.109-159.938C502.688,72.25,430.438,0,341.313,0 S179.938,72.25,179.938,161.375C179.938,162.281,180,163.172,180,164.078z"
        ></path>
        <path
          class="st0"
          d="M347.516,231.5v-16.078c2.563-0.344,5.078-0.766,7.516-1.391c5.516-1.422,10.266-3.578,14.234-6.5 c3.953-2.906,7.078-6.469,9.359-10.719c2.266-4.25,3.406-9.203,3.406-14.906c0-9.484-2.875-16.719-8.625-21.672 c-5.734-4.969-14.219-7.938-25.406-8.922L332.906,150c-5.391-0.531-9.219-1.813-11.469-3.813c-2.281-1.969-3.406-4.797-3.406-8.5 c0-4.109,1.594-7.422,4.781-9.984c3.188-2.547,8.109-3.828,14.781-3.828c5.094,0,9.938,0.609,14.563,1.813 c4.609,1.188,9.938,5,9.938,5c1.234,0.641,2.719,0.375,3.688-0.594l9.016-9.156c0.703-0.719,1.031-1.703,0.875-2.703 c-0.141-0.984-0.766-1.828-1.641-2.297c0,0-7.063-5.547-13.813-7.375c-3.969-1.094-8.219-1.813-12.703-2.25V92.734h-19.203v13.859 c-2.172,0.344-4.313,0.75-6.359,1.344c-4.891,1.406-9.172,3.531-12.859,6.375c-3.688,2.813-6.594,6.297-8.719,10.406 s-3.188,8.797-3.188,14.047c0,9.484,2.75,16.578,8.297,21.266c5.516,4.656,13.391,7.5,23.578,8.5L346.297,170 c5.234,0.594,8.969,1.922,11.172,4.047c2.188,2.141,3.281,5.047,3.281,8.719c0,5.125-2.219,8.859-6.688,11.297 c-4.469,2.391-10.094,3.594-16.906,3.594c-5.391,0-10.813-0.75-16.266-2.219c-5.453-1.5-12.656-7.75-12.656-7.75 c-1.234-0.75-2.859-0.563-3.891,0.469l-9.609,9.609c-0.703,0.688-1.016,1.656-0.906,2.625c0.125,0.969,0.688,1.828,1.516,2.328 c0,0,9.844,8.297,17.359,10.359c4.922,1.344,10.141,2.203,15.609,2.672v15.75H347.516z"
        ></path>
      </g>
    </g>
  </symbol>

  <symbol
    viewBox="0 0 64 64"
    xmlns="http://www.w3.org/2000/svg"
    stroke-width="3"
    stroke="currentColor"
    fill="none"
    id="currency"
  >
    <g id="SVGRepo_bgCarrier" stroke-width="0"></g>
    <g
      id="SVGRepo_tracerCarrier"
      stroke-linecap="round"
      stroke-linejoin="round"
    ></g>
    <g id="SVGRepo_iconCarrier">
      <path
        d="M53.79,40.85a23.82,23.82,0,0,1-2.63,4.78A23.51,23.51,0,0,1,8.87,36.22"
        stroke-linecap="round"
      ></path>
      <path
        d="M10.37,22.77A23.51,23.51,0,0,1,55.1,27.64"
        stroke-linecap="round"
      ></path>
      <polyline
        points="45.9 22.36 55.23 28.02 60.45 19.22"
        stroke-linecap="round"
      ></polyline>
      <polyline
        points="17.99 41.2 8.66 35.53 3.44 44.34"
        stroke-linecap="round"
      ></polyline>
      <path
        d="M40.32,43.14H24.79a.12.12,0,0,1-.1-.2c1.06-1.14,6.15-7,4.2-12.19-2.16-5.84-.76-15.11,9.72-10.8"
        stroke-linecap="round"
      ></path>
      <line
        x1="22.33"
        y1="30.9"
        x2="36.83"
        y2="30.9"
        stroke-linecap="round"
      ></line>
    </g>
  </symbol>

  <!-- Tag/Sale/Stay/Rent -->
  <symbol
    xmlns="http://www.w3.org/2000/svg"
    fill="none"
    viewBox="0 0 24 24"
    stroke-width="1.5"
    stroke="currentColor"
    class="size-6"
    id="icon-tag1"
  >
    <g transform="translate(2.4 2.4) scale(0.92)">
      <path
        stroke-linecap="round"
        stroke-linejoin="round"
        d="M9.568 3H5.25A2.25 2.25 0 0 0 3 5.25v4.318c0 .597.237 1.17.659 1.591l9.581 9.581c.699.699 1.78.872 2.607.33a18.095 18.095 0 0 0 5.223-5.223c.542-.827.369-1.908-.33-2.607L11.16 3.66A2.25 2.25 0 0 0 9.568 3Z"
      />
      <path
        stroke-linecap="round"
        stroke-linejoin="round"
        d="M6 6h.008v.008H6V6Z"
      />
    </g>
  </symbol>

  <symbol
    fill="currentColor"
    version="1.1"
    id="icon-tag"
    xmlns="http://www.w3.org/2000/svg"
    xmlns:xlink="http://www.w3.org/1999/xlink"
    viewBox="0 0 485 485"
    xml:space="preserve"
  >
    <g id="SVGRepo_bgCarrier" stroke-width="0"></g>
    <g
      id="SVGRepo_tracerCarrier"
      stroke-linecap="round"
      stroke-linejoin="round"
    ></g>
    <g id="SVGRepo_iconCarrier">
      <g>
        <path
          d="M455,0v72.983H0v30h70v70H0v239.033h415V172.983h-70v-70h110V485h30V0H455z M385,382.017H30V202.983h355V382.017z M315,172.983H100v-70h215V172.983z"
        ></path>
      </g>
    </g>
  </symbol>

  <!-- Apartment/House -->
  <symbol
    id="apartment"
    fill="currentColor"
    data-name="Layer 1"
    xmlns="http://www.w3.org/2000/svg"
    viewBox="0 0 122.88 106.35"
  >
    <title>residential-apartments</title>
    <path
      d="M35.57,103.26H26.06V88.52a1,1,0,0,0-1-1H13.09a1.06,1.06,0,0,0-1.06,1v14.74H10.34v3.09h102.2v-3.09h-1.69V88.52a1.06,1.06,0,0,0-1.06-1H97.87a1,1,0,0,0-1.05,1v14.74H74.44V82.42A1.41,1.41,0,0,0,73,81H49.75a1.41,1.41,0,0,0-1.41,1.41v20.84H32.49V32.87H3v70.39h7.39v3.09H1.41A1.41,1.41,0,0,1,0,104.94V32a2,2,0,0,1,.61-1.46h0a2,2,0,0,1,1.45-.6H32.49V2.25A2.47,2.47,0,0,1,33.21.73h0A2.45,2.45,0,0,1,35,0H87.83a2.42,2.42,0,0,1,1.74.72l.11.12a2.45,2.45,0,0,1,.63,1.63V29.92h30.5a2,2,0,0,1,1.45.6h0a2,2,0,0,1,.61,1.46v73a1.41,1.41,0,0,1-1.41,1.41h-8.93v-3.09h7.39V32.87H90.3v70.39H87.21V3.08H35.57V103.26ZM16.43,39H8.81c-.06,0-.12.08-.12.18v4.94c0,.1.06.19.12.19h7.62c.06,0,.12-.08.12-.19V39.13c0-.1-.06-.18-.12-.18Zm0,34.27H8.81c-.06,0-.12.09-.12.18v4.94c0,.09.06.19.12.19h7.62c.06,0,.12-.09.12-.19V73.4c0-.09-.06-.18-.12-.18Zm12.86,0H21.67c-.07,0-.12.09-.12.18v4.94c0,.09.05.19.12.19h7.62c.06,0,.11-.09.11-.19V73.4c0-.09,0-.18-.11-.18ZM16.43,61.79H8.81c-.06,0-.12.09-.12.19v4.94c0,.1.06.19.12.19h7.62c.06,0,.12-.08.12-.19V62c0-.11-.06-.19-.12-.19Zm0-11.42H8.81c-.06,0-.12.08-.12.19V55.5c0,.09.06.19.12.19h7.62c.06,0,.12-.09.12-.19V50.56c0-.11-.06-.19-.12-.19ZM29.29,39H21.67c-.07,0-.12.08-.12.18v4.94c0,.1.05.19.12.19h7.62c.06,0,.11-.08.11-.19V39.13c0-.1,0-.18-.11-.18Zm0,22.84H21.67c-.07,0-.12.09-.12.19v4.94c0,.1.05.19.12.19h7.62c.06,0,.11-.08.11-.19V62c0-.11,0-.19-.11-.19Zm0-11.42H21.67c-.07,0-.12.08-.12.19V55.5c0,.09.05.19.12.19h7.62c.06,0,.11-.09.11-.19V50.56c0-.11,0-.19-.11-.19ZM106.45,39h7.62c.06,0,.12.08.12.18v4.94c0,.1-.06.19-.12.19h-7.62c-.06,0-.12-.08-.12-.19V39.13c0-.1.06-.18.12-.18Zm0,34.27h7.62c.06,0,.12.09.12.18v4.94c0,.09-.06.19-.12.19h-7.62c-.06,0-.12-.09-.12-.19V73.4c0-.09.06-.18.12-.18Zm-12.86,0h7.62c.07,0,.12.09.12.18v4.94c0,.09,0,.19-.12.19H93.59c-.06,0-.11-.09-.11-.19V73.4c0-.09,0-.18.11-.18Zm12.86-11.43h7.62c.06,0,.12.09.12.19v4.94c0,.1-.06.19-.12.19h-7.62c-.06,0-.12-.08-.12-.19V62c0-.11.06-.19.12-.19Zm0-11.42h7.62c.06,0,.12.08.12.19V55.5c0,.09-.06.19-.12.19h-7.62c-.06,0-.12-.09-.12-.19V50.56c0-.11.06-.19.12-.19ZM93.59,39h7.62c.07,0,.12.08.12.18v4.94c0,.1,0,.19-.12.19H93.59c-.06,0-.11-.08-.11-.19V39.13c0-.1,0-.18.11-.18Zm0,22.84h7.62c.07,0,.12.09.12.19v4.94c0,.1,0,.19-.12.19H93.59c-.06,0-.11-.08-.11-.19V62c0-.11,0-.19.11-.19Zm0-11.42h7.62c.07,0,.12.08.12.19V55.5c0,.09,0,.19-.12.19H93.59c-.06,0-.11-.09-.11-.19V50.56c0-.11,0-.19.11-.19ZM43,10.84h8.29a.24.24,0,0,1,.24.23v8.3a.24.24,0,0,1-.24.23H43a.23.23,0,0,1-.23-.23v-8.3a.23.23,0,0,1,.23-.23Zm28.51,0h8.29a.24.24,0,0,1,.24.23v8.3a.24.24,0,0,1-.24.23H71.5a.24.24,0,0,1-.24-.23v-8.3a.24.24,0,0,1,.24-.23Zm-14.26,0h8.3a.23.23,0,0,1,.23.23v8.3a.23.23,0,0,1-.23.23h-8.3a.24.24,0,0,1-.23-.23v-8.3a.24.24,0,0,1,.23-.23ZM43,28.8h8.29a.24.24,0,0,1,.24.24v8.29a.24.24,0,0,1-.24.24H43a.23.23,0,0,1-.23-.24V29A.23.23,0,0,1,43,28.8Zm28.51,0h8.29A.24.24,0,0,1,80,29v8.29a.24.24,0,0,1-.24.24H71.5a.24.24,0,0,1-.24-.24V29a.24.24,0,0,1,.24-.24Zm-14.26,0h8.3a.23.23,0,0,1,.23.24v8.29a.23.23,0,0,1-.23.24h-8.3a.24.24,0,0,1-.23-.24V29a.24.24,0,0,1,.23-.24ZM43,64.73h8.29a.24.24,0,0,1,.24.24v8.29a.24.24,0,0,1-.24.24H43a.23.23,0,0,1-.23-.24V65a.23.23,0,0,1,.23-.24Zm28.51,0h8.29A.24.24,0,0,1,80,65v8.29a.24.24,0,0,1-.24.24H71.5a.24.24,0,0,1-.24-.24V65a.24.24,0,0,1,.24-.24Zm-14.26,0h8.3a.23.23,0,0,1,.23.24v8.29a.23.23,0,0,1-.23.24h-8.3a.24.24,0,0,1-.23-.24V65a.24.24,0,0,1,.23-.24ZM43,46.77h8.29a.24.24,0,0,1,.24.23v8.3a.23.23,0,0,1-.24.23H43a.23.23,0,0,1-.23-.23V47a.23.23,0,0,1,.23-.23Zm28.51,0h8.29A.24.24,0,0,1,80,47v8.3a.23.23,0,0,1-.24.23H71.5a.23.23,0,0,1-.24-.23V47a.24.24,0,0,1,.24-.23Zm-14.26,0h8.3a.23.23,0,0,1,.23.23v8.3a.23.23,0,0,1-.23.23h-8.3A.23.23,0,0,1,57,55.3V47a.24.24,0,0,1,.23-.23Z"
    />
  </symbol>

  <symbol
    version="1.1"
    id="house"
    fill="currentColor"
    xmlns="http://www.w3.org/2000/svg"
    xmlns:xlink="http://www.w3.org/1999/xlink"
    x="0px"
    y="0px"
    viewBox="0 0 122.88 112.07"
    style="enable-background: new 0 0 122.88 112.07"
    xml:space="preserve"
  >
    <style type="text/css">
      .st0 {
        fill-rule: evenodd;
        clip-rule: evenodd;
      }
    </style>
    <g>
      <path
        class="st0"
        d="M61.44,0L0,60.18l14.99,7.87L61.04,19.7l46.85,48.36l14.99-7.87L61.44,0L61.44,0z M18.26,69.63L18.26,69.63 L61.5,26.38l43.11,43.25h0v0v42.43H73.12V82.09H49.49v29.97H18.26V69.63L18.26,69.63L18.26,69.63z"
      />
    </g>
  </symbol>

  <symbol
    id="home"
    viewBox="0 0 24 24"
    fill="none"
    stroke="currentColor"
    xmlns="http://www.w3.org/2000/svg"
  >
    <path d="M22 22L2 22" stroke-width="1.5" stroke-linecap="round" />
    <path
      d="M2 11L6.06296 7.74968M22 11L13.8741 4.49931C12.7784 3.62279 11.2216 3.62279 10.1259 4.49931L9.34398 5.12486"
      stroke-width="1.5"
      stroke-linecap="round"
    />
    <path
      d="M15.5 5.5V3.5C15.5 3.22386 15.7239 3 16 3H18.5C18.7761 3 19 3.22386 19 3.5V8.5"
      stroke-width="1.5"
      stroke-linecap="round"
    />
    <path d="M4 22V9.5" stroke-width="1.5" stroke-linecap="round" />
    <path
      d="M20 9.5V13.5M20 22V17.5"
      stroke-width="1.5"
      stroke-linecap="round"
    />
    <path
      d="M15 22V17C15 15.5858 15 14.8787 14.5607 14.4393C14.1213 14 13.4143 14 12 14C10.5858 14 9.87868 14 9.43934 14.4393M9 22V17"
      stroke-width="1.5"
      stroke-linecap="round"
      stroke-linejoin="round"
    />
    <path
      d="M14 9.5C14 10.6046 13.1046 11.5 12 11.5C10.8954 11.5 10 10.6046 10 9.5C10 8.39543 10.8954 7.5 12 7.5C13.1046 7.5 14 8.39543 14 9.5Z"
      stroke-width="1.5"
    />
  </symbol>

  <symbol
    viewBox="0 0 16 16"
    xmlns="http://www.w3.org/2000/svg"
    fill="currentColor"
    id="completion-status1"
    class="bi bi-bricks"
  >
    <path
      d="M0 .5A.5.5 0 0 1 .5 0h15a.5.5 0 0 1 .5.5v3a.5.5 0 0 1-.5.5H14v2h1.5a.5.5 0 0 1 .5.5v3a.5.5 0 0 1-.5.5H14v2h1.5a.5.5 0 0 1 .5.5v3a.5.5 0 0 1-.5.5H.5a.5.5 0 0 1-.5-.5v-3a.5.5 0 0 1 .5-.5H2v-2H.5a.5.5 0 0 1-.5-.5v-3A.5.5 0 0 1 .5 6H2V4H.5a.5.5 0 0 1-.5-.5v-3zM3 4v2h4.5V4H3zm5.5 0v2H13V4H8.5zM3 10v2h4.5v-2H3zm5.5 0v2H13v-2H8.5zM1 1v2h3.5V1H1zm4.5 0v2h5V1h-5zm6 0v2H15V1h-3.5zM1 7v2h3.5V7H1zm4.5 0v2h5V7h-5zm6 0v2H15V7h-3.5zM1 13v2h3.5v-2H1zm4.5 0v2h5v-2h-5zm6 0v2H15v-2h-3.5z"
    ></path>
  </symbol>

  <symbol
    fill="currentColor"
    version="1.1"
    id="completion-status"
    xmlns="http://www.w3.org/2000/svg"
    xmlns:xlink="http://www.w3.org/1999/xlink"
    viewBox="0 0 62 62"
    xml:space="preserve"
  >
    <path
      d="M61,37.224h-9V23.778c0-0.552-0.447-1-1-1h-9V9.333c0-0.552-0.447-1-1-1H21c-0.553,0-1,0.448-1,1v13.444h-9 c-0.553,0-1,0.448-1,1v13.445H1c-0.553,0-1,0.448-1,1v14.444c0,0.552,0.447,1,1,1h20h20h20c0.553,0,1-0.448,1-1V38.224 C62,37.67,61.553,37.224,61,37.224z M50,37.224h-9h-9V24.778h9h9V37.224z M22,10.333h18v12.444h-9h-9V10.333z M12,24.778h9h9 v12.446h-9h-9V24.778z M2,39.224h9h9v12.443H2V39.224z M22,39.224h9h9v12.443H22V39.224z M60,51.667H42V39.224h9h9V51.667z"
    ></path>
    <path
      d="M37.25,20.333c0.553,0,1-0.448,1-1v-7.25c0-0.552-0.447-1-1-1s-1,0.448-1,1v7.25C36.25,19.887,36.697,20.333,37.25,20.333 z"
    ></path>
    <path
      d="M47.25,34.583c0.553,0,1-0.447,1-1v-7.25c0-0.552-0.447-1-1-1s-1,0.448-1,1v7.25C46.25,34.136,46.697,34.583,47.25,34.583 z"
    ></path>
    <path
      d="M57.5,48.083c0.553,0,1-0.447,1-1v-6.654c0-0.552-0.447-1-1-1s-1,0.448-1,1v6.654C56.5,47.636,56.947,48.083,57.5,48.083z "
    ></path>
  </symbol>

  <symbol
    version="1.1"
    id="unit-type"
    xmlns="http://www.w3.org/2000/svg"
    xmlns:xlink="http://www.w3.org/1999/xlink"
    viewBox="0 0 151.91 151.91"
    xml:space="preserve"
    fill="currentColor"
  >
    <path
      style="fill: currentColor"
      d="M143.972,150.268c-0.64,0-1.28-0.244-1.768-0.732c-0.977-0.977-0.977-2.559,0-3.535l1.107-1.107 H29.133L30.24,146c0.977,0.977,0.977,2.559,0,3.535c-0.976,0.977-2.56,0.977-3.535,0l-5.313-5.313 c-0.496-0.496-0.74-1.148-0.732-1.799c0-0.01,0-0.021,0-0.031c0-0.86,0.434-1.618,1.095-2.068l5.075-5.074 c0.976-0.977,2.56-0.977,3.535,0c0.977,0.977,0.977,2.559,0,3.535l-1.107,1.107h114.179l-1.107-1.107 c-0.977-0.977-0.977-2.559,0-3.535c0.976-0.977,2.56-0.977,3.535,0l5.313,5.313c0.497,0.496,0.74,1.148,0.732,1.799 c0,0.011,0,0.021,0,0.031c0,0.86-0.434,1.618-1.095,2.068l-5.075,5.074C145.252,150.024,144.612,150.268,143.972,150.268z M7.875,132.893c-0.86,0-1.619-0.435-2.068-1.096l-5.074-5.074c-0.977-0.977-0.977-2.559,0-3.535c0.976-0.977,2.56-0.977,3.535,0 l1.107,1.107V10.115l-1.107,1.107c-0.976,0.977-2.56,0.977-3.535,0c-0.977-0.977-0.977-2.559,0-3.535l5.313-5.313 c0.496-0.496,1.144-0.749,1.798-0.732c0.886,0.021,1.645,0.426,2.1,1.096l5.074,5.074c0.977,0.977,0.977,2.559,0,3.535 c-0.976,0.977-2.56,0.977-3.535,0l-1.107-1.107v114.18l1.107-1.107c0.976-0.977,2.56-0.977,3.535,0c0.977,0.977,0.977,2.559,0,3.535 l-5.313,5.313c-0.496,0.496-1.154,0.746-1.798,0.732C7.896,132.893,7.886,132.893,7.875,132.893z M149.41,125.82H28.597 c-1.381,0-2.5-1.119-2.5-2.5V4.143c0-1.381,1.119-2.5,2.5-2.5h72.194c1.381,0,2.5,1.119,2.5,2.5v48.523h46.118 c1.381,0,2.5,1.119,2.5,2.5v68.153C151.91,124.7,150.791,125.82,149.41,125.82z M103.184,120.82h43.726V57.666h-43.726V120.82z M55.292,120.82h42.893V87.332H55.292V120.82z M31.097,120.82h19.194V87.332H31.097V120.82z M52.792,82.332h45.393V55.166 c0-0.253,0.038-0.497,0.107-0.728V28.332H31.097v54H52.792z M67.141,23.332h31.151V6.643H67.141V23.332z M31.097,23.332h31.043 V6.643H31.097V23.332z"
    ></path>
  </symbol>

  <!-- Available/ Unavailable -->
  <symbol
    viewBox="0 0 24 24"
    fill="none"
    xmlns="http://www.w3.org/2000/svg"
    id="unavailable"
  >
    <path
      fill-rule="evenodd"
      clip-rule="evenodd"
      d="M12 1.25C6.06294 1.25 1.25 6.06294 1.25 12C1.25 17.9371 6.06294 22.75 12 22.75C17.9371 22.75 22.75 17.9371 22.75 12C22.75 6.06294 17.9371 1.25 12 1.25ZM2.75 12C2.75 6.89137 6.89137 2.75 12 2.75C14.2845 2.75 16.3756 3.57817 17.9894 4.95066C17.9827 4.95685 17.9762 4.96319 17.9697 4.96967L4.96969 17.9694C4.96317 17.976 4.95679 17.9826 4.95056 17.9893C3.57813 16.3755 2.75 14.2845 2.75 12ZM6.0105 19.0492C7.62432 20.4218 9.71544 21.25 12 21.25C17.1086 21.25 21.25 17.1086 21.25 12C21.25 9.7155 20.4218 7.62442 19.0493 6.01062C19.0431 6.01728 19.0368 6.02386 19.0303 6.03034L6.03034 19.0301C6.02382 19.0366 6.0172 19.043 6.0105 19.0492Z"
      fill="currentColor"
    ></path>
  </symbol>

  <symbol
    viewBox="0 0 24 24"
    fill="none"
    xmlns="http://www.w3.org/2000/svg"
    id="available"
  >
    <path
      d="M16.0303 10.0303C16.3232 9.73744 16.3232 9.26256 16.0303 8.96967C15.7374 8.67678 15.2626 8.67678 14.9697 8.96967L10.5 13.4393L9.03033 11.9697C8.73744 11.6768 8.26256 11.6768 7.96967 11.9697C7.67678 12.2626 7.67678 12.7374 7.96967 13.0303L9.96967 15.0303C10.2626 15.3232 10.7374 15.3232 11.0303 15.0303L16.0303 10.0303Z"
      fill="currentColor"
    ></path>
    <path
      fill-rule="evenodd"
      clip-rule="evenodd"
      d="M12 1.25C6.06294 1.25 1.25 6.06294 1.25 12C1.25 17.9371 6.06294 22.75 12 22.75C17.9371 22.75 22.75 17.9371 22.75 12C22.75 6.06294 17.9371 1.25 12 1.25ZM2.75 12C2.75 6.89137 6.89137 2.75 12 2.75C17.1086 2.75 21.25 6.89137 21.25 12C21.25 17.1086 17.1086 21.25 12 21.25C6.89137 21.25 2.75 17.1086 2.75 12Z"
      fill="currentColor"
    ></path>
  </symbol>

  <!-- Search Glass -->
  <symbol
    id="search-glass"
    stroke="currentColor"
    viewBox="0 0 24 24"
    fill="none"
    xmlns="http://www.w3.org/2000/svg"
  >
    <path
      d="M11 6C13.7614 6 16 8.23858 16 11M16.6588 16.6549L21 21M19 11C19 15.4183 15.4183 19 11 19C6.58172 19 3 15.4183 3 11C3 6.58172 6.58172 3 11 3C15.4183 3 19 6.58172 19 11Z"
      stroke="currentColor"
      stroke-width="2"
      stroke-linecap="round"
      stroke-linejoin="round"
    ></path>
  </symbol>

  <!-- Beds Bedrooms -->
  <symbol
    version="1.1"
    fill="currentColor"
    id="bed1"
    xmlns="http://www.w3.org/2000/svg"
    xmlns:xlink="http://www.w3.org/1999/xlink"
    x="0px"
    y="0px"
    viewBox="0 0 122.88 79.56"
    style="enable-background: new 0 0 122.88 79.56"
    xml:space="preserve"
  >
    <style type="text/css">
      .st0 {
        fill-rule: evenodd;
        clip-rule: evenodd;
      }
    </style>
    <g>
      <path
        class="st0"
        d="M21.65,24.62h20.96c3.42,0,6.22,2.79,6.22,6.21v6.22H21.65V24.62L21.65,24.62z M7.36,79.56h5.93 c1.72,0,3.12-1.42,3.12-3.12v-9.35H4.23v9.35C4.23,78.15,5.64,79.56,7.36,79.56L7.36,79.56z M108.79,79.56h5.93 c1.72,0,3.12-1.42,3.12-3.12v-9.35h-12.18v9.35C105.67,78.15,107.08,79.56,108.79,79.56L108.79,79.56z M2.82,41.01h1.41V3.12 C4.23,1.4,5.64,0,7.35,0h5.93c1.72,0,3.12,1.4,3.12,3.12v37.89h89.26V23.14c0-1.72,1.4-3.12,3.12-3.12h5.93 c1.72,0,3.12,1.42,3.12,3.12v17.87h2.22c1.55,0,2.82,1.27,2.82,2.82v15.99c0,1.55-1.27,2.81-2.82,2.81H2.82 C1.27,62.63,0,61.36,0,59.82V43.83C0,42.28,1.27,41.01,2.82,41.01L2.82,41.01z"
      />
    </g>
  </symbol>

  <symbol
    viewBox="0 0 24 24"
    fill="none"
    stroke="currentColor"
    id="bed2"
    xmlns="http://www.w3.org/2000/svg"
  >
    <path
      fill-rule="evenodd"
      clip-rule="evenodd"
      d="M3 4C3 3.44772 2.55228 3 2 3C1.44772 3 1 3.44772 1 4V14V17V20C1 20.5523 1.44772 21 2 21C2.55228 21 3 20.5523 3 20V18H21V20C21 20.5523 21.4477 21 22 21C22.5523 21 23 20.5523 23 20V17V14V11C23 8.23858 20.7614 6 18 6H12C11.4477 6 11 6.44772 11 7V9.5C11 7.567 9.433 6 7.5 6C5.567 6 4 7.567 4 9.5C4 11.433 5.567 13 7.5 13H3V4ZM7.5 13C9.433 13 11 11.433 11 9.5V13H7.5ZM21 15V16H3V15H12H21ZM21 11V13H13V8H18C19.6569 8 21 9.34315 21 11ZM6 9.5C6 8.67157 6.67157 8 7.5 8C8.32843 8 9 8.67157 9 9.5C9 10.3284 8.32843 11 7.5 11C6.67157 11 6 10.3284 6 9.5Z"
      fill="#000000"
    ></path>
  </symbol>

  <symbol
    fill="currentColor"
    viewBox="0 -11.47 122.88 122.88"
    version="1.1"
    id="bed"
    xmlns="http://www.w3.org/2000/svg"
    xmlns:xlink="http://www.w3.org/1999/xlink"
    style="enable-background: new 0 0 122.88 99.94"
    xml:space="preserve"
  >
    <path
      d="M4.22,67.36h114.31v-4.67c0-1.13-0.22-2.18-0.61-3.12c-0.42-1-1.04-1.89-1.81-2.66c-0.47-0.47-1-0.9-1.57-1.28 c-0.58-0.39-1.2-0.73-1.85-1.02c-1.75-0.38-3.49-0.74-5.22-1.08c-1.74-0.34-3.49-0.66-5.25-0.96c-0.08-0.01-0.14-0.02-0.22-0.04 c-0.89-0.15-1.74-0.29-2.55-0.42c-0.81-0.13-1.67-0.26-2.57-0.4l-0.02,0c-6.12-0.78-12.22-1.38-18.31-1.78 c-6.1-0.4-12.17-0.6-18.2-0.61c-3.58,0-7.15,0.06-10.72,0.2c-3.55,0.14-7.12,0.34-10.69,0.62l-0.02,0 c-3.34,0.31-6.67,0.7-10.01,1.15c-3.33,0.45-6.67,0.98-10.03,1.57l-0.37,0.09c-0.07,0.02-0.14,0.03-0.2,0.03 c-0.06,0.01-0.12,0.01-0.18,0.01c-1.57,0.28-3.18,0.59-4.84,0.92c-1.61,0.32-3.22,0.66-4.82,1.01c-0.4,0.22-0.78,0.47-1.14,0.73 c-0.36,0.27-0.71,0.56-1.02,0.87v0c-0.67,0.67-1.2,1.44-1.56,2.3c-0.34,0.81-0.53,1.71-0.53,2.69V67.36L4.22,67.36z M14.2,0h92.99 c1.21,0,2.37,0.24,3.43,0.68c1.1,0.46,2.09,1.13,2.92,1.95c0.83,0.83,1.5,1.82,1.95,2.92c0.44,1.06,0.68,2.22,0.68,3.43v42.69 c0.51,0.3,1.01,0.63,1.47,0.99c0.52,0.4,1.01,0.82,1.46,1.27c1.16,1.16,2.1,2.51,2.73,4.03c0.6,1.43,0.93,3.02,0.93,4.74v6.09 c0.03,0.1,0.06,0.2,0.08,0.3l0,0.02c0.02,0.13,0.03,0.25,0.03,0.37c0,0.13-0.01,0.26-0.04,0.39l0,0c-0.02,0.1-0.05,0.2-0.08,0.3 v27.66c0,0.58-0.24,1.11-0.62,1.49c-0.38,0.38-0.91,0.62-1.49,0.62h-4.35c-0.49,0-0.94-0.17-1.3-0.45 c-0.36-0.28-0.63-0.68-0.74-1.14c-0.8-2.3-1.61-4.12-2.48-5.54c-0.86-1.4-1.78-2.4-2.84-3.11c-1.07-0.71-2.35-1.16-3.9-1.43 c-1.58-0.28-3.42-0.37-5.61-0.36l-79.76,0.1l-0.04,0c-1.57-0.03-2.86,0.17-3.94,0.59c-1.07,0.42-1.94,1.05-2.66,1.86 c-0.81,0.9-1.49,2.05-2.11,3.39c-0.63,1.37-1.2,2.93-1.77,4.64l0,0c-0.14,0.44-0.42,0.79-0.77,1.04c-0.33,0.24-0.73,0.38-1.14,0.4 c-0.03,0.01-0.06,0.01-0.09,0.01H2.11c-0.58,0-1.11-0.24-1.49-0.62C0.24,98.94,0,98.41,0,97.83V61.52c0-1.57,0.3-3.01,0.84-4.31 c0.58-1.38,1.43-2.61,2.49-3.67c0.3-0.3,0.63-0.6,0.98-0.88c0.3-0.24,0.6-0.47,0.92-0.68V8.89c0-1.21,0.24-2.36,0.68-3.4 c0.46-1.09,1.13-2.07,1.96-2.89c0.83-0.82,1.82-1.47,2.91-1.92C11.84,0.24,12.99,0,14.2,0L14.2,0z M107.19,4.22H14.2 c-0.65,0-1.27,0.13-1.84,0.36c-0.59,0.24-1.11,0.59-1.55,1.02c-0.43,0.42-0.78,0.94-1.02,1.5C9.57,7.65,9.45,8.25,9.45,8.89v41.06 c0.3-0.1,0.6-0.18,0.91-0.26c0.49-0.13,0.98-0.24,1.47-0.32c0.68-0.12,1.42-0.25,2.22-0.39c0.6-0.1,1.24-0.21,1.9-0.31V38.19 c0-1.58,0.32-3.09,0.89-4.47c0.6-1.44,1.47-2.73,2.55-3.81c1.08-1.08,2.37-1.95,3.81-2.55c1.38-0.57,2.89-0.89,4.47-0.89h19.82 c1.58,0,3.09,0.32,4.47,0.89c1.44,0.6,2.73,1.47,3.81,2.55c1.08,1.08,1.95,2.37,2.55,3.81c0.57,1.38,0.89,2.89,0.89,4.47v6.69 c0.7-0.01,1.4-0.01,2.11-0.01v-6.68c0-1.58,0.32-3.09,0.89-4.47c0.6-1.44,1.47-2.73,2.55-3.81c1.08-1.08,2.37-1.95,3.81-2.55 c1.38-0.57,2.89-0.89,4.47-0.89h19.82c1.58,0,3.09,0.32,4.47,0.89c1.44,0.6,2.73,1.47,3.81,2.55c1.08,1.08,1.95,2.37,2.55,3.81 c0.57,1.38,0.89,2.89,0.89,4.47v10.34c0.75,0.11,1.55,0.24,2.41,0.38c0.95,0.15,1.86,0.3,2.74,0.45c0.45,0.08,0.91,0.17,1.37,0.28 c0.29,0.07,0.57,0.14,0.84,0.22V8.98c0-0.64-0.13-1.25-0.36-1.81c-0.24-0.58-0.6-1.1-1.04-1.55c-0.44-0.44-0.97-0.8-1.54-1.04 C108.44,4.35,107.83,4.22,107.19,4.22L107.19,4.22z M43.21,45.56c2.01-0.15,4.03-0.28,6.08-0.38c1.89-0.1,3.8-0.17,5.71-0.22v-6.77 c0-1.01-0.2-1.98-0.57-2.86c-0.38-0.92-0.94-1.74-1.64-2.44c-0.69-0.69-1.52-1.25-2.44-1.64c-0.88-0.37-1.85-0.57-2.86-0.57H27.67 c-1.01,0-1.98,0.2-2.86,0.57c-0.92,0.38-1.74,0.94-2.44,1.64c-0.69,0.69-1.25,1.52-1.64,2.44c-0.37,0.88-0.57,1.85-0.57,2.86V48 c1.62-0.24,3.26-0.46,4.94-0.68c1.81-0.23,3.61-0.44,5.39-0.64c0.69-0.08,1.43-0.17,2.2-0.25c0.72-0.08,1.47-0.15,2.27-0.23 c1.36-0.13,2.71-0.25,4.04-0.36C40.37,45.75,41.77,45.65,43.21,45.56L43.21,45.56z M65.54,44.9c1.21,0.02,2.42,0.05,3.63,0.09 c1.34,0.04,2.68,0.1,4.01,0.16l0.01,0c2.19,0.08,4.33,0.18,6.41,0.3c2.08,0.12,4.11,0.27,6.05,0.44c2.82,0.25,5.55,0.55,8.14,0.9 c2.32,0.32,4.52,0.68,6.58,1.08v-9.68c0-1.01-0.2-1.98-0.57-2.86c-0.38-0.92-0.94-1.74-1.64-2.44c-0.69-0.69-1.52-1.25-2.44-1.64 c-0.88-0.37-1.85-0.57-2.86-0.57H73.05c-1.01,0-1.98,0.2-2.86,0.57c-0.92,0.38-1.74,0.94-2.44,1.64c-0.69,0.69-1.25,1.52-1.64,2.44 c-0.37,0.88-0.57,1.85-0.57,2.86V44.9L65.54,44.9z M118.54,71.59H4.22v24.13h1.43c0.56-1.58,1.14-3.05,1.79-4.36 c0.7-1.4,1.49-2.64,2.45-3.71c1.14-1.28,2.48-2.27,4.09-2.93c1.61-0.65,3.49-0.98,5.75-0.93l79.69-0.1c2.57,0,4.77,0.12,6.69,0.49 c1.95,0.37,3.63,1,5.14,2c1.4,0.93,2.6,2.16,3.68,3.77c1.03,1.54,1.95,3.43,2.83,5.76h0.76V71.59L118.54,71.59z"
    ></path>
  </symbol>

  <!-- Bathroom -->
  <symbol
    version="1.1"
    id="bathroom"
    fill="currentColor"
    xmlns="http://www.w3.org/2000/svg"
    xmlns:xlink="http://www.w3.org/1999/xlink"
    x="0px"
    y="0px"
    viewBox="0 0 127.9 95.25"
    style="enable-background: new 0 0 127.9 95.25"
    xml:space="preserve"
  >
    <g>
      <path
        d="M98.97,22.32l-0.06-0.08c-0.31-0.45-0.93-0.55-1.37-0.24l-7.6,5.32c-0.45,0.31-0.55,0.93-0.24,1.37l0.06,0.08 c0.31,0.45,0.93,0.55,1.37,0.24l7.6-5.32C99.17,23.38,99.28,22.76,98.97,22.32L98.97,22.32L98.97,22.32z M119.01,52.32l-4.12,19.22 c-1.02,4.78-3.33,8.43-6.61,10.93c-2.27,1.73-4.98,2.88-8.03,3.45l2.7,5.78c0.58,1.25,0.04,2.74-1.21,3.32 c-1.25,0.58-2.74,0.04-3.32-1.21l-3.5-7.48H35.1l-3.5,7.48c-0.58,1.25-2.07,1.79-3.32,1.21c-1.25-0.58-1.79-2.07-1.21-3.32 l2.55-5.46c-3.9-0.34-7.1-1.59-9.68-3.73c-3.01-2.5-5.07-6.13-6.3-10.86L8.57,52.32H4.61c-1.26,0-2.41-0.52-3.25-1.35l0-0.01 l-0.01,0.01C0.52,50.13,0,48.98,0,47.71v-4.19c0-1.27,0.52-2.42,1.35-3.26c0.06-0.06,0.13-0.13,0.2-0.18 c0.81-0.73,1.88-1.17,3.05-1.17h0.61c0.17-1.82,0.87-3.54,1.95-5.04c1.1-1.54,2.62-2.85,4.35-3.75c1.74-0.91,3.71-1.42,5.7-1.36 c1.75,0.06,3.49,0.54,5.1,1.56c0.7-1.02,1.57-1.93,2.57-2.68c1.96-1.47,4.41-2.35,7.06-2.35c2.2,0,4.26,0.6,6.01,1.64 c1.37,0.81,2.55,1.9,3.47,3.18c2.79,0.22,5.31,1.41,7.2,3.23c1.55,1.5,2.67,3.42,3.16,5.56h67.25V14.1 c-1.46-7.17-5.6-9.12-11.13-8.33c2.49,4.34,2.17,8.75-1.36,13.25c0.45,0.73,0.41,1.53-0.08,2.38l-1.1,1.27 c-0.44,0.45-0.99,0.49-1.7-0.08L86.76,5.52c-0.46-0.55-0.37-1.03,0.17-1.45c1.2-1.47,1.35-1.72,3.48-1.36 c4.74-3.08,9.25-3.63,13.5-1.19c10.67-4.38,19.75,1.12,20.98,12.32l0,0V39.2c0.63,0.23,1.19,0.6,1.65,1.06 c0.83,0.83,1.35,1.99,1.35,3.26v4.19c0,1.27-0.52,2.42-1.35,3.26c-0.83,0.83-1.99,1.35-3.25,1.35H119.01L119.01,52.32z M89.4,14.1 l-0.06-0.08c-0.31-0.45-0.93-0.55-1.37-0.24l-7.6,5.32c-0.45,0.31-0.55,0.93-0.24,1.37l0.06,0.08c0.31,0.45,0.93,0.55,1.37,0.24 l7.6-5.32C89.61,15.16,89.71,14.54,89.4,14.1L89.4,14.1L89.4,14.1z M85.03,9.7l-0.06-0.08c-0.31-0.45-0.93-0.55-1.37-0.24 l-7.6,5.32c-0.45,0.31-0.55,0.93-0.24,1.37l0.06,0.08c0.31,0.45,0.93,0.55,1.37,0.24l7.6-5.32C85.23,10.76,85.34,10.14,85.03,9.7 L85.03,9.7L85.03,9.7z M93.76,18.35l-0.06-0.08c-0.31-0.45-0.93-0.55-1.37-0.24l-7.6,5.32c-0.45,0.31-0.55,0.93-0.24,1.37 l0.06,0.08c0.31,0.45,0.93,0.55,1.37,0.24l7.61-5.32C93.96,19.41,94.07,18.8,93.76,18.35L93.76,18.35L93.76,18.35z M10.29,38.91 h36.25c-0.32-0.74-0.79-1.4-1.37-1.95c-1.19-1.15-2.84-1.86-4.67-1.86c-0.28,0,0.02-0.01-0.17-0.01l-0.17,0.01 c-0.94,0.04-1.87-0.45-2.33-1.34c-0.54-1.03-1.38-1.9-2.41-2.51c-1-0.59-2.19-0.94-3.46-0.94c-1.54,0-2.95,0.5-4.06,1.33 c-1.11,0.84-1.94,2.01-2.3,3.35c-0.12,0.51-0.41,0.99-0.85,1.35c-1.07,0.87-2.65,0.71-3.52-0.36c-1.23-1.51-2.71-2.17-4.16-2.22 c-1.1-0.04-2.22,0.26-3.23,0.79c-1.02,0.54-1.92,1.32-2.59,2.24C10.78,37.45,10.44,38.17,10.29,38.91L10.29,38.91z M8.5,43.93 c-0.4,0.1-0.8,0.09-1.18,0h-2.3v3.36h117.86v-3.36H8.5L8.5,43.93z M13.74,52.32l4.74,18.07c0.96,3.68,2.48,6.45,4.66,8.25 c2.13,1.77,5,2.67,8.73,2.67h63.75c3.86,0,7.15-0.95,9.61-2.82c2.34-1.78,3.99-4.45,4.75-7.99l3.9-18.18H13.74L13.74,52.32z"
      />
    </g>
  </symbol>

  <!-- Size -->
  <symbol
    version="1.1"
    id="size"
    fill="currentColor"
    xmlns="http://www.w3.org/2000/svg"
    xmlns:xlink="http://www.w3.org/1999/xlink"
    x="0px"
    y="0px"
    viewBox="0 0 122.88 122.76"
    style="enable-background: new 0 0 122.88 122.76"
    xml:space="preserve"
  >
    <g transform="translate(12.288 12.276) scale(0.86)">
      <path
        d="M114.89,89.82c0-2.21,1.79-4,4-4c2.21,0,4,1.79,4,4v28.75c0,2.21-1.79,4-4,4H89.67c-2.21,0-4-1.79-4-4c0-2.21,1.79-4,4-4 h19.18L74.49,82.09c-1.6-1.51-1.68-4.03-0.17-5.64c1.51-1.6,4.03-1.68,5.64-0.17l34.93,33.02V89.82L114.89,89.82z M89.82,7.99 c-2.21,0-4-1.79-4-4c0-2.21,1.79-4,4-4h28.75c2.21,0,4,1.79,4,4v29.21c0,2.21-1.79,4-4,4c-2.21,0-4-1.79-4-4V14.03L82.09,48.39 c-1.51,1.6-4.03,1.68-5.64,0.17c-1.6-1.51-1.68-4.03-0.17-5.64L109.3,7.99H89.82L89.82,7.99z M7.99,32.76c0,2.21-1.79,4-4,4 c-2.21,0-4-1.79-4-4V4.01c0-2.21,1.79-4,4-4h29.21c2.21,0,4,1.79,4,4c0,2.21-1.79,4-4,4H14.03l34.36,32.48 c1.6,1.51,1.68,4.03,0.17,5.64c-1.51,1.6-4.03,1.68-5.64,0.17L7.99,13.28V32.76L7.99,32.76z M32.94,114.77c2.21,0,4,1.79,4,4 c0,2.21-1.79,4-4,4H4.19c-2.21,0-4-1.79-4-4V89.55c0-2.21,1.79-4,4-4c2.21,0,4,1.79,4,4v19.18l32.48-34.36 c1.51-1.6,4.03-1.68,5.64-0.17c1.6,1.51,1.68,4.03,0.17,5.64l-33.02,34.93H32.94L32.94,114.77z"
      />
    </g>
  </symbol>

  <!-- Business -->
  <symbol
    xmlns="http://www.w3.org/2000/svg"
    fill="none"
    viewBox="0 0 24 24"
    stroke-width="1.5"
    stroke="currentColor"
    class="size-6"
    id="icon-business"
  >
    <path
      stroke-linecap="round"
      stroke-linejoin="round"
      d="M20.25 14.15v4.25c0 1.094-.787 2.036-1.872 2.18-2.087.277-4.216.42-6.378.42s-4.291-.143-6.378-.42c-1.085-.144-1.872-1.086-1.872-2.18v-4.25m16.5 0a2.18 2.18 0 0 0 .75-1.661V8.706c0-1.081-.768-2.015-1.837-2.175a48.114 48.114 0 0 0-3.413-.387m4.5 8.006c-.194.165-.42.295-.673.38A23.978 23.978 0 0 1 12 15.75c-2.648 0-5.195-.429-7.577-1.22a2.016 2.016 0 0 1-.673-.38m0 0A2.18 2.18 0 0 1 3 12.489V8.706c0-1.081.768-2.015 1.837-2.175a48.111 48.111 0 0 1 3.413-.387m7.5 0V5.25A2.25 2.25 0 0 0 13.5 3h-3a2.25 2.25 0 0 0-2.25 2.25v.894m7.5 0a48.667 48.667 0 0 0-7.5 0M12 12.75h.008v.008H12v-.008Z"
    />
  </symbol>

  <!-- Title -->
  <symbol
    xmlns="http://www.w3.org/2000/svg"
    fill="none"
    viewBox="0 0 24 24"
    stroke-width="1.5"
    stroke="currentColor"
    class="size-6"
    id="icon-title"
  >
    <path
      stroke-linecap="round"
      stroke-linejoin="round"
      d="M15.75 6a3.75 3.75 0 1 1-7.5 0 3.75 3.75 0 0 1 7.5 0ZM4.501 20.118a7.5 7.5 0 0 1 14.998 0A17.933 17.933 0 0 1 12 21.75c-2.676 0-5.216-.584-7.499-1.632Z"
    />
  </symbol>

  <!-- Socials -->
  <!-- LinkedIn -->
  <symbol
    xmlns="http://www.w3.org/2000/svg"
    viewBox="0 0 512 509.64"
    id="linkedin"
  >
    <defs>
      <mask id="linkedin-mask">
        <!-- visible area -->
        <rect width="512" height="509.64" fill="white" />

        <!-- cutout area -->
        <path
          fill="black"
          d="M204.97 197.54h64.69v33.16h.94c9.01-16.16 31.04-33.16 63.89-33.16
        68.31 0 80.94 42.51 80.94 97.81v116.92h-67.46l-.01-104.13
        c0-23.81-.49-54.45-35.08-54.45-35.12 0-40.51 25.91-40.51 52.72
        v105.86h-67.4V197.54zm-38.23-65.09c0 19.36-15.72 35.08-35.08 35.08
        -19.37 0-35.09-15.72-35.09-35.08 0-19.37 15.72-35.08 35.09-35.08
        19.36 0 35.08 15.71 35.08 35.08zm-70.17 65.09h70.17v214.73H96.57V197.54z"
        />
      </mask>
    </defs>

    <rect
      width="512"
      height="509.64"
      rx="115.61"
      ry="115.61"
      fill="currentColor"
      mask="url(#linkedin-mask)"
    />
  </symbol>

  <!-- Instagram -->
  <symbol
    xmlns="http://www.w3.org/2000/svg"
    shape-rendering="geometricPrecision"
    text-rendering="geometricPrecision"
    image-rendering="optimizeQuality"
    fill-rule="evenodd"
    clip-rule="evenodd"
    viewBox="0 0 512 512"
    id="instagram"
    fill="currentColor"
  >
    <path
      fill-rule="nonzero"
      d="M170.663 256.157c-.083-47.121 38.055-85.4 85.167-85.482 47.121-.092 85.407 38.029 85.499 85.159.091 47.13-38.047 85.4-85.176 85.492-47.112.09-85.399-38.039-85.49-85.169zm-46.108.092c.141 72.602 59.106 131.327 131.69 131.185 72.592-.14 131.35-59.089 131.209-131.691-.141-72.577-59.114-131.336-131.715-131.194-72.585.141-131.325 59.114-131.184 131.7zm237.104-137.092c.033 16.954 13.817 30.682 30.772 30.649 16.961-.034 30.689-13.811 30.664-30.765-.033-16.954-13.818-30.69-30.78-30.656-16.962.033-30.689 13.818-30.656 30.772zm-208.696 345.4c-24.958-1.086-38.511-5.234-47.543-8.709-11.961-4.628-20.496-10.177-29.479-19.093-8.966-8.951-14.532-17.461-19.202-29.397-3.508-9.033-7.73-22.569-8.9-47.527-1.269-26.983-1.559-35.078-1.683-103.433-.133-68.338.116-76.434 1.294-103.441 1.069-24.941 5.242-38.512 8.709-47.536 4.628-11.977 10.161-20.496 19.094-29.478 8.949-8.983 17.459-14.532 29.403-19.202 9.025-3.526 22.561-7.715 47.511-8.9 26.998-1.278 35.085-1.551 103.423-1.684 68.353-.133 76.448.108 103.456 1.294 24.94 1.086 38.51 5.217 47.527 8.709 11.968 4.628 20.503 10.145 29.478 19.094 8.974 8.95 14.54 17.443 19.21 29.413 3.524 8.999 7.714 22.552 8.892 47.494 1.285 26.998 1.576 35.094 1.7 103.432.132 68.355-.117 76.451-1.302 103.442-1.087 24.957-5.226 38.52-8.709 47.56-4.629 11.953-10.161 20.488-19.103 29.471-8.941 8.949-17.451 14.531-29.403 19.201-9.009 3.517-22.561 7.714-47.494 8.9-26.998 1.269-35.086 1.56-103.448 1.684-68.338.133-76.424-.124-103.431-1.294zM149.977 1.773c-27.239 1.286-45.843 5.648-62.101 12.019-16.829 6.561-31.095 15.353-45.286 29.603C28.381 57.653 19.655 71.944 13.144 88.79c-6.303 16.299-10.575 34.912-11.778 62.168C.172 178.264-.102 186.973.031 256.489c.133 69.508.439 78.234 1.741 105.548 1.302 27.231 5.649 45.827 12.019 62.092 6.569 16.83 15.353 31.089 29.611 45.289 14.25 14.2 28.55 22.918 45.404 29.438 16.282 6.294 34.902 10.583 62.15 11.777 27.305 1.203 36.022 1.468 105.521 1.336 69.532-.133 78.25-.44 105.555-1.734 27.239-1.302 45.826-5.664 62.1-12.019 16.829-6.585 31.095-15.353 45.288-29.611 14.191-14.251 22.917-28.55 29.428-45.404 6.304-16.282 10.592-34.904 11.777-62.134 1.195-27.323 1.478-36.049 1.344-105.557-.133-69.516-.447-78.225-1.741-105.522-1.294-27.256-5.657-45.844-12.019-62.118-6.577-16.829-15.352-31.08-29.602-45.288-14.25-14.192-28.55-22.935-45.404-29.429-16.29-6.304-34.903-10.6-62.15-11.778C333.747.164 325.03-.101 255.506.031c-69.507.133-78.224.431-105.529 1.742z"
    />
  </symbol>

  <!-- Facebook -->
  <symbol
    xmlns="http://www.w3.org/2000/svg"
    shape-rendering="geometricPrecision"
    text-rendering="geometricPrecision"
    image-rendering="optimizeQuality"
    fill-rule="evenodd"
    clip-rule="evenodd"
    viewBox="0 0 512 509.64"
    id="fb"
    fill="currentColor"
  >
    <path
      d="M115.613 0h280.774C459.974 0 512 52.026 512 115.612v278.415c0 63.588-52.026 115.613-115.613 115.613H287.015V332.805h69.253l14.365-78.229h-83.618v-27.667c0-41.341 16.218-57.241 58.194-57.241 13.04 0 23.533.317 29.576.953V99.706c-11.448-3.18-39.434-6.361-55.651-6.361-85.545 0-124.977 40.388-124.977 127.522v33.709h-52.79v78.229h52.79V509.64h-78.544C52.026 509.64 0 457.615 0 394.027V115.612C0 52.026 52.026 0 115.613 0z"
    />
  </symbol>

  <!-- Facebook -->
  <symbol
    xmlns="http://www.w3.org/2000/svg"
    shape-rendering="geometricPrecision"
    text-rendering="geometricPrecision"
    image-rendering="optimizeQuality"
    fill-rule="evenodd"
    clip-rule="evenodd"
    viewBox="0 0 512 462.799"
    id="x"
    fill="currentColor"
  >
    <path
      fill-rule="nonzero"
      d="M403.229 0h78.506L310.219 196.04 512 462.799H354.002L230.261 301.007 88.669 462.799h-78.56l183.455-209.683L0 0h161.999l111.856 147.88L403.229 0zm-27.556 415.805h43.505L138.363 44.527h-46.68l283.99 371.278z"
    />
  </symbol>

  <!-- Find Home -->
  <symbol
    data-name="Layer 1"
    xmlns="http://www.w3.org/2000/svg"
    viewBox="0 0 118.43 122.88"
    id="find_home"
    fill="currentColor"
  >
    <defs>
      <style>
        .cls-1 {
          fill-rule: evenodd;
        }
      </style>
    </defs>
    <title>home-inspection</title>
    <path
      class="cls-1"
      d="M11.1,56.77A9,9,0,0,1,5,57.06,7.3,7.3,0,0,1,.05,50.89a9.59,9.59,0,0,1,2.31-7.1h0a2.06,2.06,0,0,1,.33-.33L57.68.53a2,2,0,0,1,2.6-.1L115.4,43.27h0a1.31,1.31,0,0,1,.24.23,9.06,9.06,0,0,1,2.58,8.36,7.78,7.78,0,0,1-1.76,3.35,7.65,7.65,0,0,1-3.12,2.12,8.44,8.44,0,0,1-6.54-.43q0,22.79,0,45.56H85.64c.07-.34.13-.69.19-1a28.14,28.14,0,0,0,.32-2.91H101.4v-44c0-1-37.81-30.86-42-34.11-4.43,3.37-42.93,33-42.93,34.27V98.51h14.4a28.54,28.54,0,0,0,.33,2.88l.06.39c0,.23.08.45.13.68H11.09q0-22.83,0-45.69Zm49.48-16V53.62H72.13v0A13,13,0,0,0,60.58,40.75Zm0,15.59v9.23H72.13V56.34Zm-2.72,9.22V56.34H46.31v9.23H57.86Zm0-11.94V40.75A13,13,0,0,0,46.31,53.59v0ZM59.22,38A15.64,15.64,0,0,1,74.84,53.58v14.7H43.59V53.58A15.65,15.65,0,0,1,59.22,38Zm-.31,38.9A20,20,0,0,1,78.56,97.3a20.38,20.38,0,0,1-.94,5.71,20.06,20.06,0,0,1-2.13,4.57l7.6,8.61a1,1,0,0,1-.08,1.36l-5.81,5.09a1,1,0,0,1-1.35-.09l-7.26-8.3a20.28,20.28,0,0,1-4.64,2,20,20,0,0,1-19.88-5.4l0,0a20,20,0,0,1,14.89-33.9Zm11.14,9a16.19,16.19,0,0,0-5.13-3.58l0,0a16,16,0,0,0-21,8.28l0,0a16.08,16.08,0,0,0-.22,12.19A16.17,16.17,0,0,0,47,108a16,16,0,0,0,5.13,3.57,15.79,15.79,0,0,0,6.09,1.33,16,16,0,0,0,11.41-4.46,16.23,16.23,0,0,0,3.57-5.12,16.09,16.09,0,0,0,.24-12.24,16.06,16.06,0,0,0-3.37-5.26ZM90.36,3.42l16.55.68V26.45L90.36,15.53V3.42Z"
    />
  </symbol>

  <!-- Paperwork -->
  <symbol
    id="paperwork"
    data-name="Layer 1"
    xmlns="http://www.w3.org/2000/svg"
    viewBox="0 0 107.68 122.88"
    fill="currentColor"
  >
    <defs>
      <style>
        .cls-1 {
          fill-rule: evenodd;
        }
      </style>
    </defs>
    <title>property-agreement</title>
    <path
      class="cls-1"
      d="M96.17,74.89,106.48,83a3.17,3.17,0,0,1,.53,4.43l-4.5,5.71-15.27-12,4.5-5.71a3.17,3.17,0,0,1,4.43-.52ZM25.5,83a2.42,2.42,0,1,1,0-4.83H76.41L72.67,83Zm2.9-18.64V43.84a4.31,4.31,0,0,1-3,.14,3.44,3.44,0,0,1-1.64-1.14A3.63,3.63,0,0,1,23.05,41a4.68,4.68,0,0,1,1.12-3.44h0s.1-.11.16-.16L51,16.6a1,1,0,0,1,1.26-.06L78.93,37.3h0l.12.11a4.39,4.39,0,0,1,1.24,4.05,3.67,3.67,0,0,1-.85,1.62,3.61,3.61,0,0,1-1.51,1,4.13,4.13,0,0,1-3.17-.21V64.32H72.15V42.75c0-.47-18.32-14.94-20.34-16.52C49.67,27.86,31,42.22,31,42.83V64.39ZM51.71,41.11A11.3,11.3,0,0,1,63,52.38v12H40.44v-12A11.3,11.3,0,0,1,51.71,41.11Zm1,2V52.4H61v0a9.33,9.33,0,0,0-8.33-9.26Zm0,11.25v8.06H61V54.37Zm-2,8.06V54.37H42.4v8.06Zm0-10V43.12a9.35,9.35,0,0,0-8.33,9.26v0ZM66.81,18.32h8V29.15l-8-5.29V18.32Zm-41,78.14a2.45,2.45,0,0,1,0-4.89H66.05l-3.79,4.89Zm31.6,20a3.07,3.07,0,0,1,.53,0v.09l-.1,1.21c-.15,2-.28,3.62-.28,5.08H7.48A7.48,7.48,0,0,1,0,115.4V7.48A7.48,7.48,0,0,1,7.48,0H96.8a7.48,7.48,0,0,1,7.47,7.48v56a8.17,8.17,0,0,1-.2,1.93l-.43-.35a13.25,13.25,0,0,0-5.79-2.62v-55a1.08,1.08,0,0,0-1-1.05H7.48a1.12,1.12,0,0,0-.75.3,1.15,1.15,0,0,0-.31.75V115.39a1.05,1.05,0,0,0,.32.74,1.08,1.08,0,0,0,.75.31ZM85.56,115c-3.56,1.58-6.42,2.37-10,4-7.58,2.6-7.31,4.36-6.74-3.15L70.32,103h0L85,84l15.27,12L85.57,115v0ZM72.93,105l10,7.9-7,3.11c-5.5,2.43-5.33,3.6-4.43-2.07L72.93,105Z"
    />
  </symbol>

  <symbol
    version="1.1"
    xmlns="http://www.w3.org/2000/svg"
    xmlns:xlink="http://www.w3.org/1999/xlink"
    x="0px"
    y="0px"
    viewBox="0 0 122.88 69.55"
    style="enable-background: new 0 0 122.88 69.55"
    xml:space="preserve"
    id="paperwork1"
    fill="currentColor"
  >
    <g>
      <path
        d="M6.98,0h93.56c1.92,0,3.67,0.78,4.93,2.05c1.26,1.26,2.05,3.01,2.05,4.93v4.92c-0.72,0.17-1.42,0.4-2.1,0.7 c-1.41,0.63-2.65,1.51-3.72,2.62l-2.41,2.51H4.47v38.97c0,0.69,0.28,1.31,0.74,1.77s1.08,0.74,1.77,0.74H68.6l-1,4.47H6.98 c-1.92,0-3.67-0.79-4.93-2.05C0.79,60.37,0,58.63,0,56.71V6.98c0-1.92,0.79-3.67,2.05-4.93C3.31,0.78,5.06,0,6.98,0L6.98,0z M112.41,21.08c-0.65-0.63-1.41-0.92-2.29-0.91c-0.87,0.02-1.62,0.36-2.24,1l-5.02,5.23l14.1,13.61l5.07-5.28 c0.61-0.62,0.86-1.41,0.85-2.29c-0.01-0.86-0.32-1.65-0.94-2.24L112.41,21.08L112.41,21.08L112.41,21.08z M93.24,64.9L76,69.52 c-0.62,0.12-0.86-0.12-0.76-0.71l3.9-17.47l19.24-20.31l14.08,13.56L93.24,64.9L93.24,64.9z M12.72,44.19h47.85v4.47H12.72V44.19 L12.72,44.19z M12.72,30.97h57.64v4.47H12.72V30.97L12.72,30.97z M4.47,13.26h98.57V6.98c0-0.69-0.28-1.31-0.74-1.77 c-0.46-0.46-1.08-0.74-1.77-0.74H6.98c-0.69,0-1.31,0.28-1.77,0.74C4.76,5.67,4.47,6.29,4.47,6.98V13.26L4.47,13.26z"
      />
    </g>
  </symbol>

  <!-- Handover -->
  <symbol
    xmlns="http://www.w3.org/2000/svg"
    shape-rendering="geometricPrecision"
    text-rendering="geometricPrecision"
    image-rendering="optimizeQuality"
    fill-rule="evenodd"
    clip-rule="evenodd"
    viewBox="0 0 512 491.621"
    id="handover"
    fill="currentColor"
  >
    <path
      d="M168.982 240.544v-64.183c-7.011 2.694-13.566 2.755-19.014.894-4.253-1.435-7.844-4.008-10.48-7.334-2.634-3.321-4.31-7.364-4.822-11.826-.777-6.915 1.288-14.733 7.188-22.067.299-.36.63-.719 1.018-1.018L313.714 1.655c2.214-2.036 5.63-2.249 8.082-.328l171.233 133.117c.271.206.512.419.748.69 7.936 8.53 9.914 17.993 7.996 25.989a24.232 24.232 0 01-5.448 10.416 23.65 23.65 0 01-9.698 6.559c-5.993 2.153-13.117 2.096-20.334-1.32v94.933c-5.064.48-10.267 1.472-15.576 3.034-.397.108-.798.229-1.192.356V169.415c0-3.025-117.455-95.871-130.423-105.96-13.74 10.448-133.355 102.547-133.355 106.437v72.411a156.741 156.741 0 00-4.66-1.018 29.445 29.445 0 00-5.292-.582l-6.813-.159zM0 250.773h80.012L75.461 447.55H0V250.773zm97.951 180.886l3.804-163.332 73.464 1.714c31.015 6.31 61.765 23.918 92.455 44.255l57.061 1.33c25.792 2.156 38.709 28.648 13.219 45.264-20.36 14.204-46.734 12.761-73.731 9.704-18.635-1.355-20.038 23.708-.566 24.249 6.74.678 14.135-.731 20.553-.588 33.773.753 61.743-5.054 79.386-31.336l9.024-19.774 85.858-40.105c42.802-12.996 71.95 32.141 39.939 62.302-62.515 43.299-126.43 78.639-191.602 106.864-47.5 27.398-94.313 25.34-140.508-3.273l-68.356-37.274zm226.212-272.524v53.858h48.326v-.15c0-14.853-6.078-28.352-15.868-38.139-8.537-8.54-19.885-14.255-32.458-15.569zm0 65.238v46.765h48.326v-46.765h-48.326zm-11.378 46.743v-46.743h-48.32v46.765h48.32v-.022zm0-58.123v-53.858c-12.601 1.345-23.922 7.029-32.455 15.569-9.79 9.787-15.871 23.286-15.871 38.139v.15h48.326zm5.69-65.541c17.997 0 34.342 7.367 46.168 19.192 11.857 11.858 19.192 28.209 19.192 46.168v69.643H258.877a12.425 12.425 0 01-3.21-1.317c-.875-.515-1.736-1.151-2.583-1.87v-66.456c0-17.993 7.367-34.342 19.193-46.168 11.854-11.825 28.206-19.192 46.198-19.192zM466.652 15.385v66.784l-51.409-33.924v-32.86h51.409z"
    />
  </symbol>

  <!-- Handshake -->
  <symbol
    data-name="Layer 1"
    xmlns="http://www.w3.org/2000/svg"
    viewBox="0 0 122.88 67.72"
    id="handshake"
    fill="currentColor"
  >
    <defs>
      <style>
        .cls-1 {
          fill-rule: evenodd;
        }
      </style>
    </defs>
    <title>hand-shake</title>
    <path
      class="cls-1"
      d="M3.24,16.78l2.3,28.47c.31,2.94,1,4.83,1.84,5.87a2.82,2.82,0,0,0,2.85.85l.27,0H21.78a3.84,3.84,0,0,0,3.31-1.32l.05-.06A8.31,8.31,0,0,0,26.32,46V14.57a1.21,1.21,0,0,1-.07-.43.49.49,0,0,1,0-.12A2.93,2.93,0,0,0,25,11.92a7.16,7.16,0,0,0-3.88-.78H7a4.3,4.3,0,0,0-3.19,1.17c-.67.8-.91,2.18-.58,4.33v.14ZM93.1,15.57a10.86,10.86,0,0,1,.09-1.43L88,10.65c-.75-.5-1.57-1.08-2.4-1.66-3-2.08-6-4.22-9.33-5.09a26.12,26.12,0,0,0-5.94-.82,20.38,20.38,0,0,0-5.46.6,14,14,0,0,0-3,1.14,10.75,10.75,0,0,0-2.31,1.64L56,10.63a1.59,1.59,0,0,1-.44.52L45.89,22.66a4.21,4.21,0,0,0,.84,1.85,4.09,4.09,0,0,0,1.78,1.26,5.77,5.77,0,0,0,2.52.31,8.21,8.21,0,0,0,4.42-1.83L58.14,22c.68-.56,1.25-1.08,1.81-1.59a24.11,24.11,0,0,1,3.78-3c3-1.8,6-1.86,9,3.12L87.93,48H93.1V15.57Zm1.23-4.39a5.67,5.67,0,0,1,.8-.9A8.24,8.24,0,0,1,100.8,8.5H114c2.77,0,5,.49,6.58,1.69,1.73,1.34,2.55,3.37,2.2,6.29l-2.92,30.21a10.68,10.68,0,0,1-2.2,6.27,6.74,6.74,0,0,1-5.7,2.22H100.09a6.06,6.06,0,0,1-4.26-1.31,8,8,0,0,1-2.15-2.81H89.57a7.09,7.09,0,0,1,.08,4.52,7.43,7.43,0,0,1-2.47,3.5,8.47,8.47,0,0,1-3.87,1.71,7.68,7.68,0,0,1-4.17-.46,10.83,10.83,0,0,1-4.91,3.13A8.53,8.53,0,0,1,69,63.22a10.44,10.44,0,0,1-5.56,3.46,10.22,10.22,0,0,1-6.62-1,9.76,9.76,0,0,1-2.29,1.35,8.61,8.61,0,0,1-3.55.65,9.66,9.66,0,0,1-6.55-2.39,19.2,19.2,0,0,1-3.68-5.09L34.19,48.8H29.11a9,9,0,0,1-1.51,3.63l-.07.1A6.74,6.74,0,0,1,21.7,55H10.61a5.66,5.66,0,0,1-5.56-1.89c-1.3-1.51-2.2-4-2.58-7.57v-.13L.17,17.05c-.46-3.06,0-5.23,1.28-6.71A7.13,7.13,0,0,1,6.87,8.06H21.1a10,10,0,0,1,5.57,1.27h0a5.73,5.73,0,0,1,2.43,3.25h9.55a27.48,27.48,0,0,1,7.13-3.67A19.39,19.39,0,0,1,54,8.27l3.27-3.89.12-.13a13.71,13.71,0,0,1,3-2.16A17.83,17.83,0,0,1,64.06.69,24.23,24.23,0,0,1,70.35,0,29.26,29.26,0,0,1,77,.92h0c3.81,1,7.1,3.31,10.3,5.55.77.54,1.53,1.07,2.35,1.62l4.65,3.09ZM15.77,38.76a2.66,2.66,0,1,1-2.65,2.65,2.66,2.66,0,0,1,2.65-2.65ZM86.36,50.92a1.57,1.57,0,0,1-.88-1L70.06,22.09c-1.71-2.86-3.25-2.94-4.75-2.05A22.52,22.52,0,0,0,62,22.71c-.68.62-1.36,1.24-1.92,1.7l-2.73,2.25a11.38,11.38,0,0,1-6.09,2.5,9,9,0,0,1-3.86-.5,7.28,7.28,0,0,1-3.11-2.22,7.44,7.44,0,0,1-1.59-4.11,1.58,1.58,0,0,1,.45-1.22l8.33-9.91a15,15,0,0,0-4.81.67,25.56,25.56,0,0,0-6.63,3.48,1.5,1.5,0,0,1-1,.33H29.41v30h5.67a1.55,1.55,0,0,1,1.38.84l7,12.15a17.79,17.79,0,0,0,3,4.34,6.77,6.77,0,0,0,4.58,1.6,5.63,5.63,0,0,0,2.3-.42,5.8,5.8,0,0,0,1.31-.75L50.14,55a1.54,1.54,0,0,1,2.71-1.45l4.94,9.23a6.67,6.67,0,0,0,8.87-1.54L59.55,50.06A1.54,1.54,0,0,1,60,47.93a1.56,1.56,0,0,1,2.13.47l7.49,11.77a5.81,5.81,0,0,0,3.78.32,7.65,7.65,0,0,0,3.44-2.24L70.07,45.47A1.55,1.55,0,0,1,72.8,44l7,13.22a4.44,4.44,0,0,0,3,.5,5.27,5.27,0,0,0,2.45-1.08,4.27,4.27,0,0,0,1.45-2,4.12,4.12,0,0,0-.23-3,1.48,1.48,0,0,1-.12-.71Zm20.32-12.16A2.66,2.66,0,1,1,104,41.41a2.66,2.66,0,0,1,2.65-2.65Z"
    />
  </symbol>

  <!-- Building -->
  <symbol
    version="1.1"
    id="building"
    xmlns="http://www.w3.org/2000/svg"
    xmlns:xlink="http://www.w3.org/1999/xlink"
    x="0px"
    y="0px"
    viewBox="0 0 122.88 113.05"
    style="enable-background: new 0 0 122.88 113.05"
    xml:space="preserve"
    fill="currentColor"
  >
    <style type="text/css">
      .st0 {
        fill-rule: evenodd;
        clip-rule: evenodd;
      }
    </style>
    <g>
      <path
        class="st0"
        d="M0,100.07h14.72V1.57c0-0.86,0.71-1.57,1.57-1.57h49.86c0.86,0,1.57,0.71,1.57,1.57V38.5h44.12 c0.86,0,1.57,0.71,1.57,1.57v59.99h9.47v12.99H0V100.07L0,100.07z M27.32,14.82h10.2c0.31,0,0.57,0.26,0.57,0.57v12.36 c0,0.31-0.26,0.57-0.57,0.57h-10.2c-0.31,0-0.57-0.26-0.57-0.57V15.39C26.75,15.08,27.01,14.82,27.32,14.82L27.32,14.82z M44.6,76.3h10.2c0.31,0,0.57,0.26,0.57,0.57v12.36c0,0.31-0.26,0.57-0.57,0.57H44.6c-0.31,0-0.57-0.26-0.57-0.57V76.87 C44.03,76.55,44.29,76.3,44.6,76.3L44.6,76.3z M27.32,76.3h10.2c0.31,0,0.57,0.26,0.57,0.57v12.36c0,0.31-0.26,0.57-0.57,0.57 h-10.2c-0.31,0-0.57-0.26-0.57-0.57V76.87C26.75,76.55,27.01,76.3,27.32,76.3L27.32,76.3z M44.6,55.8h10.2 c0.31,0,0.57,0.26,0.57,0.57v12.36c0,0.31-0.26,0.57-0.57,0.57H44.6c-0.31,0-0.57-0.26-0.57-0.57V56.38 C44.03,56.06,44.29,55.8,44.6,55.8L44.6,55.8z M27.32,55.8h10.2c0.31,0,0.57,0.26,0.57,0.57v12.36c0,0.31-0.26,0.57-0.57,0.57 h-10.2c-0.31,0-0.57-0.26-0.57-0.57V56.38C26.75,56.06,27.01,55.8,27.32,55.8L27.32,55.8z M44.6,35.31h10.2 c0.31,0,0.57,0.26,0.57,0.57v12.36c0,0.31-0.26,0.57-0.57,0.57H44.6c-0.31,0-0.57-0.26-0.57-0.57V35.88 C44.03,35.57,44.29,35.31,44.6,35.31L44.6,35.31z M27.32,35.31h10.2c0.31,0,0.57,0.26,0.57,0.57v12.36c0,0.31-0.26,0.57-0.57,0.57 h-10.2c-0.31,0-0.57-0.26-0.57-0.57V35.88C26.75,35.57,27.01,35.31,27.32,35.31L27.32,35.31z M44.6,14.82h10.2 c0.31,0,0.57,0.26,0.57,0.57v12.36c0,0.31-0.26,0.57-0.57,0.57H44.6c-0.31,0-0.57-0.26-0.57-0.57V15.39 C44.03,15.08,44.29,14.82,44.6,14.82L44.6,14.82z M23.17,7.32h35.92c0.62,0,1.13,0.61,1.13,1.35v85.87c0,0.74-0.51,1.35-1.13,1.35 H23.17c-0.62,0-1.13-0.61-1.13-1.35V8.67C22.04,7.93,22.55,7.32,23.17,7.32L23.17,7.32z M72.61,53.43h10.2 c0.31,0,0.57,0.26,0.57,0.57v12.36c0,0.31-0.26,0.57-0.57,0.57h-10.2c-0.31,0-0.57-0.26-0.57-0.57V54 C72.04,53.69,72.3,53.43,72.61,53.43L72.61,53.43z M89.89,76.3h10.2c0.31,0,0.57,0.26,0.57,0.57v12.36c0,0.31-0.26,0.57-0.57,0.57 h-10.2c-0.31,0-0.57-0.26-0.57-0.57V76.87C89.32,76.55,89.58,76.3,89.89,76.3L89.89,76.3z M72.61,76.3h10.2 c0.31,0,0.57,0.26,0.57,0.57v12.36c0,0.31-0.26,0.57-0.57,0.57h-10.2c-0.31,0-0.57-0.26-0.57-0.57V76.87 C72.04,76.55,72.3,76.3,72.61,76.3L72.61,76.3z M89.89,53.43h10.2c0.31,0,0.57,0.26,0.57,0.57v12.36c0,0.31-0.26,0.57-0.57,0.57 h-10.2c-0.31,0-0.57-0.26-0.57-0.57V54C89.32,53.69,89.58,53.43,89.89,53.43L89.89,53.43z M68.86,45.82h35.92 c0.62,0,1.13,0.61,1.13,1.35v47.37c0,0.74-0.51,1.35-1.13,1.35H68.86c-0.62,0-1.13-0.61-1.13-1.35V47.17 C67.73,46.43,68.24,45.82,68.86,45.82L68.86,45.82z"
      />
    </g>
  </symbol>

  <!-- Address -->
  <symbol
    id="address"
    data-name="Layer 1"
    xmlns="http://www.w3.org/2000/svg"
    viewBox="0 0 105.93 122.88"
    fill="currentColor"
  >
    <defs>
      <style>
        .cls-1 {
          fill-rule: evenodd;
        }
      </style>
    </defs>
    <title>map</title>
    <path
      class="cls-1"
      d="M56.92,73.14a1.62,1.62,0,0,1-1.86.06A65.25,65.25,0,0,1,38.92,58.8,51.29,51.29,0,0,1,28.06,35.37C26.77,27.38,28,19.7,32,13.45a27,27,0,0,1,6-6.66A29.23,29.23,0,0,1,56.36,0,26,26,0,0,1,73.82,7.12a26,26,0,0,1,4.66,5.68c4.27,7,5.19,16,3.31,25.12A55.29,55.29,0,0,1,56.92,73.14Zm-19,.74V101.7l30.15,13V78.87a65.17,65.17,0,0,0,6.45-5.63v41.18l25-12.59v-56l-9.61,3.7a61.61,61.61,0,0,0,2.38-7.81l9.3-3.59A3.22,3.22,0,0,1,105.7,40a3.18,3.18,0,0,1,.22,1.16v62.7a3.23,3.23,0,0,1-2,3L72.72,122.53a3.23,3.23,0,0,1-2.92,0l-35-15.17L4.68,122.53a3.22,3.22,0,0,1-4.33-1.42A3.28,3.28,0,0,1,0,119.66V53.24a3.23,3.23,0,0,1,2.32-3.1L18.7,43.82a58.63,58.63,0,0,0,2.16,6.07L6.46,55.44v59l25-12.59V67.09a76.28,76.28,0,0,0,6.46,6.79ZM55.15,14.21A13.72,13.72,0,1,1,41.43,27.93,13.72,13.72,0,0,1,55.15,14.21Z"
    />
  </symbol>

  <!-- Phone -->
  <symbol
    version="1.1"
    id="phone"
    xmlns="http://www.w3.org/2000/svg"
    xmlns:xlink="http://www.w3.org/1999/xlink"
    x="0px"
    y="0px"
    viewBox="0 0 118.875 122.877"
    enable-background="new 0 0 118.875 122.877"
    xml:space="preserve"
    fill="currentColor"
  >
    <g>
      <path
        fill-rule="evenodd"
        clip-rule="evenodd"
        d="M1.432,20.714c9.427,6.476,18.779,12.989,26.673,21.375 C23.58,62.076,41.64,78.045,58.111,87.453c6.448,3.683,9.298,6.265,16.476,5.024l28.268,27.696 C49.657,138.039-10.045,63.084,1.432,20.714L1.432,20.714z M81.874,85.356l6.201-6.298c1.788-1.819,4.74-1.842,6.559-0.053 l22.862,22.509c1.818,1.789,1.841,4.741,0.053,6.559l-6.203,6.299c-1.789,1.818-4.741,1.841-6.56,0.052L81.924,91.915 C80.105,90.127,80.083,87.175,81.874,85.356L81.874,85.356z M7.004,7.467l4.5-5.464c1.929-2.342,5.425-2.68,7.767-0.751 l23.405,19.281c2.342,1.931,2.677,5.425,0.75,7.77l-4.502,5.461c-1.93,2.345-5.425,2.68-7.768,0.751L7.755,15.234 C5.413,13.305,5.073,9.809,7.004,7.467L7.004,7.467z"
      />
    </g>
  </symbol>

  <!-- <symbol
    version="1.1"
    id="phone"
    xmlns="http://www.w3.org/2000/svg"
    xmlns:xlink="http://www.w3.org/1999/xlink"
    x="0px"
    y="0px"
    width="122.88px"
    height="122.267px"
    viewBox="0 0 122.88 122.267"
    enable-background="new 0 0 122.88 122.267"
    xml:space="preserve"
    fill="currentColor"
  >
    <g>
      <path
        d="M33.822,50.291c4.137,7.442,8.898,14.604,15.074,21.133C55.1,77.984,62.782,83.962,72.771,89.03l0.01,0.005l0.002-0.005 c0.728,0.371,1.421,0.362,2.072,0.118c0.944-0.353,1.927-1.137,2.883-2.086c0.729-0.726,1.643-1.924,2.631-3.223 c3.846-5.054,8.601-11.301,15.314-8.193c0.142,0.065,0.276,0.141,0.402,0.226l22.373,12.852c0.08,0.046,0.157,0.095,0.23,0.147 c2.966,2.036,4.177,5.172,4.19,8.683c0.014,3.621-1.329,7.674-3.274,11.101c-2.565,4.517-6.387,7.502-10.761,9.525 c-4.17,1.928-8.798,2.954-13.267,3.608c-6.989,1.025-13.578,0.374-20.288-1.692c-6.55-2.017-13.176-5.385-20.4-9.86l-0.526-0.326 c-3.326-2.06-6.906-4.276-10.389-6.904C31.108,93.296,18.007,79.283,9.512,63.904C2.361,50.958-1.552,36.995,0.581,23.681 C1.75,16.375,4.901,9.743,10.333,5.35c4.762-3.853,11.188-5.94,19.448-5.203c0.973,0.084,1.793,0.639,2.255,1.419l0.006-0.003 l14.324,24.27c2.11,2.718,2.344,5.415,1.203,8.096c-0.943,2.218-2.892,4.251-5.476,6.168c-0.786,0.65-1.708,1.325-2.659,2.021 C36.236,44.459,32.578,47.136,33.822,50.291L33.822,50.291z M44.67,75.422C38.066,68.44,33.035,60.88,28.695,53.065 c-0.076-0.123-0.144-0.253-0.202-0.39c-3.174-7.459,2.52-11.625,7.493-15.262c0.845-0.618,1.663-1.217,2.401-1.829l0.002,0.003 c0.043-0.036,0.088-0.071,0.135-0.105c1.843-1.354,3.171-2.647,3.678-3.837c0.289-0.679,0.182-1.426-0.466-2.265 c-0.111-0.129-0.213-0.271-0.303-0.423L27.795,5.852c-5.869-0.241-10.419,1.321-13.784,4.044 c-4.239,3.429-6.723,8.759-7.674,14.699c-1.905,11.894,1.716,24.594,8.292,36.5c8.078,14.623,20.575,27.977,32.864,37.25 c3.379,2.55,6.776,4.653,9.932,6.607l0.526,0.326c6.818,4.223,13.017,7.386,19.052,9.244c5.876,1.809,11.634,2.38,17.729,1.486 c4.009-0.587,8.113-1.485,11.668-3.129c3.351-1.55,6.248-3.785,8.134-7.104c1.496-2.637,2.53-5.653,2.521-8.222 c-0.006-1.63-0.472-3.029-1.605-3.844L93.2,80.93c-2.461-1.081-5.629,3.081-8.193,6.45c-1.104,1.452-2.125,2.792-3.156,3.817 c-1.477,1.466-3.118,2.723-4.962,3.411c-2.136,0.799-4.395,0.834-6.755-0.37l0.002-0.004C59.522,88.849,51.323,82.457,44.67,75.422 L44.67,75.422z"
      />
    </g>
  </symbol> -->

  <!-- Email -->
  <symbol
    id="email"
    data-name="Layer 1"
    xmlns="http://www.w3.org/2000/svg"
    viewBox="0 0 119.45 122.88"
    fill="currentColor"
  >
    <title>email-address</title>
    <path
      d="M0,58.68V53.56L39.82,88.38.52,119.18A6.14,6.14,0,0,1,0,116.71v-58Zm82-6a24,24,0,0,1-1,6.19,15.32,15.32,0,0,1-2.48,4.85,10.89,10.89,0,0,1-3.83,3.18A11.09,11.09,0,0,1,69.83,68a8.69,8.69,0,0,1-2.13-.25A7.6,7.6,0,0,1,65.79,67a6.7,6.7,0,0,1-1.58-1.21,6.8,6.8,0,0,1-.69-.82,8.54,8.54,0,0,1-6.69,2.92,8,8,0,0,1-2.52-.39,7.53,7.53,0,0,1-2.19-1.19l0,0a7.89,7.89,0,0,1-1.71-1.88,10.11,10.11,0,0,1-1.19-2.52v0a15.7,15.7,0,0,1-.55-6.27v0a23.36,23.36,0,0,1,1.46-5.95,16.59,16.59,0,0,1,2.83-4.71,12.06,12.06,0,0,1,4-3.09,11.11,11.11,0,0,1,4.79-1,14.3,14.3,0,0,1,3.67.45,11.15,11.15,0,0,1,3.17,1.39l1.63,1.09a.65.65,0,0,1,.28.59L69.11,59.36a3.29,3.29,0,0,0,.29,2.22,1.75,1.75,0,0,0,1.54.61,2.63,2.63,0,0,0,1.61-.56A5.63,5.63,0,0,0,74,59.74a12,12,0,0,0,1.09-3,20.78,20.78,0,0,0,.47-3.83,24.13,24.13,0,0,0-.65-7.4,13.59,13.59,0,0,0-2.76-5.39,11.76,11.76,0,0,0-4.67-3.32A17.51,17.51,0,0,0,61,35.68a16.06,16.06,0,0,0-4.45.6,14.57,14.57,0,0,0-3.91,1.79A15.31,15.31,0,0,0,49.32,41a18.56,18.56,0,0,0-2.54,3.93,24,24,0,0,0-1.69,4.76,29.77,29.77,0,0,0-.74,5.42h0A25.78,25.78,0,0,0,45,62.81a14,14,0,0,0,2.77,5.57,11.75,11.75,0,0,0,4.76,3.38,18.42,18.42,0,0,0,6.77,1.15,19.82,19.82,0,0,0,2.16-.12c.74-.08,1.51-.21,2.28-.37s1.48-.33,2.12-.52a15.05,15.05,0,0,0,1.7-.61.64.64,0,0,1,.84.34.55.55,0,0,1,0,.17L69.41,76a.67.67,0,0,1-.28.68,10.53,10.53,0,0,1-2,1,17.2,17.2,0,0,1-2.47.76,23.7,23.7,0,0,1-2.73.49,23.18,23.18,0,0,1-2.75.16,24.74,24.74,0,0,1-12.17-2.77,16.89,16.89,0,0,1-4.39-3.45,18.16,18.16,0,0,1-3.09-4.79l0,0a24,24,0,0,1-1.73-5.95A35.46,35.46,0,0,1,37.41,55a32.6,32.6,0,0,1,1-6.86,28,28,0,0,1,2.36-6.12A23.13,23.13,0,0,1,44.37,37a21.6,21.6,0,0,1,4.74-3.82,22.27,22.27,0,0,1,5.65-2.37A24.52,24.52,0,0,1,61.07,30a22.8,22.8,0,0,1,11.5,2.77,17.53,17.53,0,0,1,4.28,3.4,18.32,18.32,0,0,1,3,4.59,22.32,22.32,0,0,1,1.76,5.6A28.62,28.62,0,0,1,82,52.71Zm-25.7,3a15.3,15.3,0,0,0,0,2.79,5.85,5.85,0,0,0,.48,1.9,2.42,2.42,0,0,0,.83,1,2.13,2.13,0,0,0,1.19.32,2.1,2.1,0,0,0,.89-.2,3.08,3.08,0,0,0,.87-.67,5.64,5.64,0,0,0,.83-1.17,10.13,10.13,0,0,0,.69-1.58l1-11-.17,0a5.62,5.62,0,0,0-.74,0,5,5,0,0,0-2.25.49A4.51,4.51,0,0,0,58.27,49a9.45,9.45,0,0,0-1.2,2.7,23.81,23.81,0,0,0-.73,4ZM.15,43.47C1,40.14,5.72,38,8.34,36.14V21.85a6,6,0,0,1,6-6H36.81L58.26.57A3.24,3.24,0,0,1,62,.59L83.08,15.85h22a6,6,0,0,1,6,6V36.1c2.82,2,8.34,4.72,8.34,8.49v.15L105.11,56.83v-35H14.34v34L.15,43.47Zm119.3,11.31v61.93a6.12,6.12,0,0,1-1.42,3.93L78.34,89.43l41.11-34.65Zm-11,68.1H8.26L45.71,93.53l11.15,9.75a3.83,3.83,0,0,0,5.15-.09L72.33,94.5l36.09,28.38Z"
    />
  </symbol>
</svg>
